<svg id="Layer_1" data-name="Layer 1" xmlns="http://www.w3.org/2000/svg" viewBox="0 0 1258.359 940.736">
  <defs>
    <style>
      .cls-1 {
        fill: #424242;
      }

      .cls-2 {
        fill: #898989;
      }
    </style>
  </defs>
  <title>lionNoPrefect</title>
  <g>
    <path d="M224.946,48.91c-2.3,1.5-6.8,6.1-10.1,10.3-9.4,11.9-12.3,13.1-28.2,11.4-5.9-.6-8.3-.4-11.2.8-5.5,2.3-12.6,9.4-15.9,15.9-3,6-6.6,8.8-11.3,8.8-1.3,0-2.6-.6-2.9-1.3-.7-1.9-7.1,1.9-11.7,6.9-6,6.5-8.9,13-8.3,18.6a23.174,23.174,0,0,1-.7,8.4c-1.2,3.6-1.2,3.9,1.8,6.5a26.274,26.274,0,0,0,8.7,4.4c3,.8,7.9,2.2,10.9,3,6.5,1.8,10.2,4.5,9.3,6.8-.3.9-5.8,5.5-12.2,10.2-11.4,8.5-11.6,8.7-15.4,16.8-7.1,15.3-16.3,23.8-40.7,37.7-7.1,4.1-15.4,9.7-18.4,12.5s-8.3,7.4-11.7,10.3c-11.4,9.8-11.8,15.5-1.8,33.1,6.2,11.1,8.1,17.3,6.6,21.4a6.575,6.575,0,0,1-2.6,3.3c-1.2.5-1,1.2,1.1,3.7,2,2.4,2.5,3.8,2.1,6.3q-.6,3.3.9,4.5a3.792,3.792,0,0,1,1.4,2.7c0,.9,1.8,5.3,4.1,10l4,8.4-2.4,2.2c-2,1.8-2.7,3.7-3.2,8.7-1.3,12.4,4,28.4,13.9,41.6,3.9,5.4,5.1,6.3,7.7,6.3,2.2,0,3.2.5,3.6,2,.3,1.1,1.2,2,1.9,2,.8,0,1.4-.9,1.4-2,0-2.2.8-2.4,4.3-1.1,2,.8,2.8.5,4.6-1.5,1.7-1.9,2.5-2.3,3.5-1.5,1,.9,1.6.5,2.5-1.8,2.6-6.2,10.6-10.7,15.7-8.7,1.4.5,1.2,1.1-1.4,4a18.7,18.7,0,0,0-3.7,6.4c-.9,4.1,1,10.5,4.2,14.3,2.4,2.9,2.7,4,2.8,11.3.1,8.2,1.5,12.7,4.9,15.5,1.4,1.2,1.6.5,1.6-6.5,0-8,1.4-15.4,2.9-15.4.5,0,1.6,3.9,2.5,8.7,2.4,12.2,7,25.6,11.2,32.5a63.188,63.188,0,0,0,9.4,11c3.3,2.8,5.7,5.5,5.5,5.8-.2.4-3.4,2.4-7,4.5s-6.5,4.2-6.5,4.7c0,1.7,5.1,1.9,10.3.4a45.858,45.858,0,0,1,6.6-1.6c2,0,1.1,3.4-3.3,11.9-6.5,12.8-8.8,20.9-8.9,31.6,0,10.6,2.2,18.2,8.5,29,4.4,7.5,14.6,22.5,15.4,22.5.6,0-.4-4-3.2-13.5-1.4-4.4-2.7-8.8-3-9.8-.8-2.6,1.3-2.1,3.2.8.9,1.4,3.6,8,6.1,14.7,4.2,11.7,9.5,21.8,11.4,21.8,1.3,0,1.4.2-4.6-12.1-5.6-11.7-6.2-13.8-4.5-15.5.7-.7,0-3-2.1-7.2-4.6-9.4-6.6-20.6-5-29.5,1.1-7,3.6-12.7,5.7-13.4.6-.2,1,5.2.9,15.9,0,19.5,1.9,28.1,7.7,34.4,1.1,1.3,3.6,8.7,6.3,19,5.1,19.8,7.9,27.6,13.4,37.6,4.2,7.5,5.3,7.4,2.6-.2-3.8-10.8-3.4-36.9.8-51.6,2.4-8.5,4.4-10.2,5.9-4.9,1.2,4.6,3.8,22.4,3.8,26.4,0,2.7-.3,3.2-1,2.1a10.7,10.7,0,0,1-1-4.5,9.991,9.991,0,0,0-.9-4.4c-2.1-3.3-2.5,15-.5,22.1.9,3,2.4,2,2.4-1.5a10.645,10.645,0,0,1,.9-4.6c.8-1.2,1.2-1,2,1,1,2.5,7,16.5,14.5,34.1,2.4,5.7,5.1,12.5,6.1,15.1.9,2.7,1.9,4.6,2.1,4.4.3-.3-.7-5.5-2.1-11.7a110.209,110.209,0,0,1-2.5-14.4c.1-2.8.2-2.9,1.4-1.3.8,1,2.9,6.9,4.7,13.2,3.1,10.9,4.9,13.6,4.9,7.6,0-3.2,2.2-6.7,3.7-5.8.6.4,1.3,3.1,1.6,6.1a26.293,26.293,0,0,0,2.1,8.3c1.5,2.7,1.6,2.7,1-2.8-.4-3.5-.2-6.4.5-7.8,2.3-4.2,3.5-1.8,3.7,7.5.1,10.2,2.5,17.8,7.3,23.4,3.7,4.3,3.9,2.6.7-3.8-5.4-10.6-7.1-22.3-3.4-23,1.3-.3,2.1,1.1,3.5,6,1.4,4.7,2.4,6.4,3.9,6.6,1.2.2,3,2.3,4.7,5.6a68.311,68.311,0,0,0,6.5,9.7c3.6,4.1,3.7,4.2,4.2,1.8.8-3.5,3-3,6.5,1.7,6,7.9,8.6,22.9,6.2,36.2-1.2,6.6.9,4.2,3.4-3.9,1.1-3.8,2.5-6.9,3-6.9,2.1,0,.7,7.8-2.8,15.2-2,4.3-3.3,8.1-2.8,8.6.4.4,1,.1,1.2-.6.8-2.1,3.4-4.3,4.5-3.6s.8,2-1.7,7.9c-1.4,3.4-1.4,3.8-.1,2.5.8-.8,2.9-4.9,4.6-9,3.8-9.2,5.6-12,7.7-12,1.3,0,1.5.8,1,4.3-.4,2.5-.2,4.8.4,5.4,1.4,1.4,3.5,16.2,5.4,37.3.8,9.6,2.5,23.1,3.7,30,1.9,10.7,2.2,15.1,1.8,30.5-.8,36.2-.6,42,2.4,59,2.1,11.8,2.7,17.8,2.3,22.8-.7,8.5-4.7,17.7-7.6,17.7a3.667,3.667,0,0,1-2.6-.9c-.3-.5-3.7-1.7-7.6-2.6-5.8-1.3-7.4-1.3-8.8-.3-2.5,2-2.9,2.9-2.4,4.9.6,2.3-1,2.4-4.3.3-1.9-1.3-3.7-1.5-8.1-1-11.5,1.3-19,7.9-26.7,23.3-2.7,5.4-4.2,7.4-6.1,7.9-4.2,1-6.5,5-6.5,11.1,0,10.3,7.4,19.3,15.9,19.3,2,0,3.2.6,3.5,1.8.3,1,2.7,3.9,5.3,6.4l4.8,4.6,6.5-1.4a85.822,85.822,0,0,1,13.6-1.4c6.3,0,7.2-.2,7.7-2,.7-2.7,4.8-2.6,10.4.1q8.25,4.05,10.5-2.1c1.2-3.7,3.8-4,3.8-.5,0,3-.5,3,11.5.5a95.813,95.813,0,0,1,14-2c3.4,0,5.7-1,11.9-5l7.6-5.1v-6c0-6.8,6.2-27.3,11.2-37.2,6.5-12.7,10.4-28.4,11.5-46.4.4-6.8.2-11.6-.6-14.6-1.2-4.2-1-5.1,3.3-17.9,5.1-15.3,10.2-40.6,14.1-70,1.4-10.6,2.8-20.7,3-22.4.6-3.2,19.9-36.7,21.5-37.2.6-.2,1,1.4,1.1,3.5.1,3.4.2,3.5.9,1.3a24.316,24.316,0,0,0,.9-5.5,11.8,11.8,0,0,1,1.1-4.5c1.6-2.4,5,2.3,5,6.9,0,3-.9,4.8-4.6,9.1-6.6,7.8-7.4,9.2-9.6,17.2-2.6,9.8-3.4,20.5-1.9,26.5,1.7,6.8,6.8,14.5,9.2,13.8,1.4-.5,2,.2,2.8,3.2a30.5,30.5,0,0,1,1.1,4.8c0,.5,4.8,3.7,10.7,7a474.7,474.7,0,0,1,42.8,28c7.1,5.3,8.6,6,13,6.1,2.8.1,12.5.5,21.6.9,21.3,1,38.9-1.3,38.9-5,0-.8.8-1.6,1.9-2,3.6-1.1,20.6-19.8,23.4-25.7,3-6.3,3.2-7.9,1.9-15.3-1.6-8.9-4.3-12.6-8-10.6a5.505,5.505,0,0,1-4,0c-2-.7-2.3-1.4-1.7-3.8.5-2.3.1-3.1-1.9-4.5-7.9-5.1-27.1-5.9-39.1-1.5l-6.1,2.2-7.1-3.2c-4.4-1.9-8.8-3.1-11.5-3.1a14.358,14.358,0,0,1-5.4-.8c-4-2.7-4.5-12.3-1-19.7,2.6-5.6,7.8-11.7,21.7-25.5,11.7-11.6,15.1-16,15.8-20.8l.6-3.7,7.1-.2c4-.1,12.3-1.5,19.4-3.3,6.9-1.8,16.4-3.5,21.2-3.7,7.4-.5,8.8-.9,9.3-2.4.6-1.7,1.4-1.8,8.9-1.3,11.1.9,23.6-1.7,23.6-4.8,0-1.8.4-2,4.2-1.5,3.2.4,4.8.1,6.9-1.4,6.3-4.4,15.5-6.6,35.9-8.4,13-1.2,15.7-1.2,16.5-.1.9,1.2,1.4,1.2,3,0a7.1,7.1,0,0,1,3.8-1.4c1.6,0,1.8.5,1.2,2.8a66.494,66.494,0,0,0-1.2,6.8c-1.4,11.8,9.7,46.1,15.9,48.9,1.5.7,3,4.1,5.8,12.5,10.3,31.5,24.8,48.6,47.3,55.6,5.3,1.6,6,2.2,8.8,7.3,6.1,10.9,20.2,22.9,45.1,38.4a9.185,9.185,0,0,1,3.6,5c.6,2.4,2.3,4.2,6.7,7.2,3.2,2.2,6.2,4.9,6.6,6,1.3,3.5,1,22.9-.6,31.9-1.7,9.6-5.7,18.6-10.2,22.8-4,3.8-11.1,6.8-16.4,6.8-3.9,0-5-.5-7.9-3.5-4.2-4.4-5.5-4.4-20.7-1a2.65,2.65,0,0,0-2.3,2.6c0,1.8-.4,2-3.2,1.2-14.5-3.7-27.8,5.8-27.8,19.7,0,4.4-.4,5.6-3.1,8.3-2.8,2.8-3.1,3.5-2.5,7.4.5,4.2.4,4.5-2.9,6.4-4.2,2.5-4.4,3.7-.8,4.1a5.762,5.762,0,0,1,4.3,3.3c.9,1.7,3.5,3.9,6,5.2l4.5,2.1,2.3-2.1c1.2-1.1,2.3-1.6,2.3-1.1.4,1.9.6,4,.8,5.7.1,1.6.8,1.8,5.4,1.5,5-.3,5.2-.2,5.5,2.3.4,3.1,3.3,3.9,14.8,3.9,5.7,0,8-.5,11.9-2.6,2.7-1.4,5.7-2.3,6.6-2.1a3.082,3.082,0,0,0,3-.9c.7-.8,2.1-1.1,4-.7,3.5.7,33.4-1.6,36.4-2.7a28.741,28.741,0,0,0,5.4-3.9c1.9-1.7,3.8-3.1,4.2-3.1s1.1-.9,1.4-2c.9-2.9,2.9-2.4,4.2,1,1.3,3.6,3.3,3.8,7.3.8,2.7-1.9,3-2.8,3-7.4,0-4-.4-5.5-1.7-6.3-1.5-.8-1.6-1.3-.6-2.8.6-1,3.1-5.9,5.6-10.8,4.5-9.1,10-17,24.4-34.7a156.239,156.239,0,0,0,11.4-15.8c4.7-8.4,8.3-14.2,16.7-27.4l7.2-11.5v-16.5l-6.2-5.6c-19.9-17.5-38.9-42.7-55-72.6-4.5-8.3-5.3-10.8-5.4-15.4a75.233,75.233,0,0,0-.9-9.3c-.7-3.4-.5-3.9,1.4-4.4,1.8-.5,2.1-1,1.5-4-.6-3.4-.3-3.8,14.2-18.3,8.2-8.1,16.9-17.5,19.4-20.8,2.5-3.4,5.2-6.1,6-6.2.9,0,3.8,1.9,6.5,4.2,12.5,10.4,31.8,20.8,47,25.4a23.515,23.515,0,0,1,10.5,6,36.593,36.593,0,0,0,8,5.7c3.4,1.4,9.1,7,25.7,25.4,10.7,11.8,18.2,16.7,41.2,26.9,10.2,4.5,20.3,9.2,22.3,10.4,2.1,1.2,4.9,2,6.5,1.8,2.4-.3,2.8,0,2.6,1.9-.4,3.3,9.9,13.9,23.9,24.5,17.2,13.1,17.7,13.9,20.9,30.2,1,5.4,2.6,10.9,3.4,12.2s3.7,3.5,6.4,4.8c6.2,3.2,9.4,7.1,14,17.1,2.4,5.1,4.8,8.7,6.5,9.9,4,2.6,9.8,15.3,9.9,21.6,0,2.7-.2,5.3-.6,5.7-.4.3-2.3-.1-4.2-1-4.4-2.1-6.9-2.1-8.5-.2-1,1.3-1,1.9.5,3.5,2.6,2.8,1.3,5-3.1,5-4.6,0-9.2,2.8-14.4,8.7-3.8,4.4-5.1,8.5-3,9.8,1.8,1.1,1,4.6-1.9,8.3-3.8,5-4.5,8.3-2.4,12.6,1.3,2.9,1.4,4,.5,6.1-2.3,5.1-1.6,6.4,5.1,9.5,14.9,7,25,7.3,41.8,1.3,5.4-1.8,11.9-3.5,14.5-3.6,3.3-.1,5.3-.8,6.2-2,1.8-2.3,3.1-2.2,4.1.4.7,2,1.1,1.8,5.1-3,4.6-5.5,6.1-5.9,7-2,.6,2.4.7,2.4,2.3-.8,2-3.8,5.2-4.4,6-1.1.6,2.1.7,2.1,4-.8,1.9-1.6,5-4.1,7-5.6a13.752,13.752,0,0,0,5.2-13.4c-.3-2-3.6-9.3-7.2-16.2-5.9-11.3-6.6-13.3-6.7-18.7-.1-3.6-.8-7.3-1.8-9.1s-2.2-7.4-2.9-12.5c-.6-5.1-1.4-10.2-1.9-11.3-.4-1.2-.3-5.5.1-9.6,1.1-9.6-.4-23.5-3.6-33.7-4.7-14.9-13.5-26.1-24.6-31.6-8-3.8-29-24.5-32.3-31.7a27.349,27.349,0,0,0-6-8.3c-2-1.5-5.9-6.7-8.7-11.5s-6.2-10.1-7.5-11.8c-1.3-1.8-3.4-7.6-4.9-13.5-1.5-5.7-5.1-17.7-8.1-26.6-5-14.8-9.2-25.5-30.3-75.6-4.7-11-7.1-18.1-7.1-20.7,0-5.3-2.4-17.2-5-25-1.2-3.6-6.8-16-12.5-27.5-14.9-30.4-15-31.1-6.5-29.5,2.5.4,12.8,1.6,23,2.4,10.2.9,21.7,2.3,25.5,3.1,10.1,2.2,51.3,1,56.5-1.5,1.9-1,7.1-2.5,11.5-3.5a202.174,202.174,0,0,0,47.8-17.4c22.3-11.3,22.8-11.7,30.4-23.4a130.27,130.27,0,0,1,9.9-13.7c3.4-3.6,5.3-10,12.4-41.1,2.8-12.6-2.9-38.2-12.7-55.9-16.3-29.9-47.9-56.8-80.2-68.4-4.1-1.5-14.1-4-22.3-5.6-14.9-2.9-21.3-5.1-26.7-9a12.953,12.953,0,0,0-6.1-2,28.469,28.469,0,0,1-7.2-1.2c-2.6-.8-4.2-.8-4.9-.1s-2.7.5-6.2-.4a44.506,44.506,0,0,0-6.9-1.3,14.4,14.4,0,0,1-4.5-1.2,18.833,18.833,0,0,0-5.8-1.3c-1.6-.1-6.5-.5-10.7-.9-6.6-.7-7.8-.6-7.8.7,0,1-2.2,2-6.9,3.2-13.7,3.3-38.4,16.2-36.2,18.9,1.2,1.5-.8,3.5-15.9,15.8-11.9,9.7-14.5,12.3-13.6,13.6,1.2,2-.8,4.4-5,6.3-4.8,2-5.9,3.9-1.9,3.1,2-.3,2.5,0,2.5,1.7,0,1.1.5,2.1,1.1,2.1.7,0,1,1.2.7,2.8l-.4,2.7h8.9c7.7,0,9,.3,10.3,2,4,5.4,5.3,6.3,11.9,7.5,9.4,1.8,26.1.8,34.5-2,7.6-2.6,17.1-7.3,29.6-14.6,19.8-11.6,33.6-16.9,46.9-18a48.589,48.589,0,0,0,10.8-2c23.9-9,71.8,24.6,91.7,64.3,5.4,11,8,20.9,8,31.3,0,23.9-14,44.9-37.6,56.5-13.8,6.7-21.5,8.6-37.9,9.5-8.2.5-17.9,1.4-21.5,2-12.8,2.3-31.5-.4-48-6.9-9.2-3.7-22.9-11.3-42.1-23.3-52.7-33-116.2-67.9-150.4-82.7-5.5-2.4-10.7-5.1-11.5-6.1-1.1-1.3-3.7-1.9-9.9-2.4-4.8-.4-16.9-2.8-28-5.7-36.9-9.4-60.5-12.4-98.6-12.3-19.4.1-31.3.6-47,2.3-70.4,7.3-110.8,9.6-129,7.2-15.7-2.1-26.5-6.9-26.5-11.6,0-4.6-9.3-10.1-20.3-12-5.6-.9-4.1-3,2-3,2.8,0,4.9-.3,4.6-.8-.2-.4-1.6-.7-3.1-.7-3.9,0-5.5-1.4-4.7-3.9.4-1.2.2-2.1-.4-2.1s-1.1-1.5-1.1-3.4c0-4.9-1.5-8.3-6.5-14.7a54.106,54.106,0,0,1-5.5-8.3c-.5-1.5-2.5-3.6-4.5-4.7a14.969,14.969,0,0,1-4.7-4.7c-2.3-4.7-7.3-7.2-14.2-7.1l-6.1.2,5.5.7c6.2.8,8.6,1.8,11.4,4.8,2.3,2.6,1.5,3.9-3,4.8-2.9.5-4,.2-6-1.7-3.1-2.9-8.4-3.1-16.3-.4-4.8,1.5-5.5,1.6-6.8.2-2.7-2.6-.7-4.7,9-9.2,10.4-4.9,15.8-6.2,20.1-4.6,3.6,1.4,4.8.5,2.1-1.6-3.8-2.8-10.8-1.2-25.6,6.1-15.8,7.8-20.1,8.9-21.9,5.7a8.613,8.613,0,0,1-.8-4.4c.3-1.9.8-2.1,5.4-1.8,3.9.2,5.3-.1,5.7-1.3.5-1.4-.4-1.6-6.5-1.6a50.87,50.87,0,0,1-10.9-1.1c-4.7-1.4-9.4-6.1-8.5-8.4.5-1.5.9-1.5,3.9.4,7.6,4.7,22.6,6.1,27.4,2.6,1.5-1.2,1.2-1.2-2.2-.5a50.96,50.96,0,0,1-9.3,1c-8.6,0-17.2-4.8-8.9-5.1,3.2-.1,3.2-.1-.7-1-6.2-1.5-10.6-6.6-10.6-12.5,0-2.1.4-2.5,1.9-2.1,1.6.4,3-1.2,7.2-8,9.6-15.7,7.4-24.9-7.9-32.7-2.7-1.4-5.4-3.1-6.1-4-1.1-1.3-.6-1.8,3.3-3.7a37.21,37.21,0,0,0,8.7-6.1c3.7-3.6,4.5-3.9,7.7-3.4,2.7.5,3.3.4,2.2-.3-2.8-1.9-7.8-1.1-15.2,2.5-6.3,3.1-8,3.5-12.6,3-11-1-14.4-5.3-19.1-24.4-1.6-6.8-3.9-14.3-5.1-16.6-2.2-4.7-2.5-6.6-.9-6.6,2,0-4.5-10.1-10.2-15.8a53.6,53.6,0,0,0-11.8-9c-6.7-3.6-8-4.9-5.7-5.8.9-.3,1.6-1,1.6-1.4,0-.9-5.5-3-12.7-4.9-4.6-1.2-5.1-1.9-3-4,1-1-.1-1.1-5.8-.6-3.8.4-7.2.7-7.5.7-6.2.1-9.6-2.5-13.7-10.6a42.889,42.889,0,0,0-5.9-8.5c-1.9-2-5.5-6-8-8.9-5.9-6.6-14.1-10.7-25.8-12.9-10.9-2-20.8-.8-30.1,3.6-3.3,1.5-6.6,2.6-7.3,2.3-2.7-.9-.9-3.4,3.8-5.4,4.6-1.9,6-3.5,4.4-5-.3-.4-3.5.7-7,2.4-4.8,2.2-6.8,2.8-7.7,1.9-.6-.6-.9-1.2-.6-1.3.2-.2,2.2-1.2,4.3-2.3a16.686,16.686,0,0,0,5.4-4.3l1.6-2.4-4,1.7c-7.5,3.2-8.6,3.5-13,3.5a14.067,14.067,0,0,1-8.3-2.6c-5.6-3.6-12.3-5.4-20.7-5.4-10,0-16.9,2.7-24.3,9.6-3.2,3-6.1,5.4-6.5,5.4-1.8,0,0-3.6,4.4-9,2.8-3.3,4.8-6.5,4.5-7C234.046,45.31,229.246,46.21,224.946,48.91Zm-57.4,470.7c2.4,18,2.5,19.5,1.1,19.5-1.2,0-3.6-5.5-5.6-13.4-2-7.5-2.2-22.3-.3-25.7l1.3-2.4.7,3C165.146,502.21,166.446,510.81,167.546,519.61Z" transform="translate(-48 -46.174)"/>
    <path d="M498.446,258.81a5.279,5.279,0,0,0,2.5,0c.6-.3.1-.5-1.3-.5S497.746,258.51,498.446,258.81Z" transform="translate(-48 -46.174)"/>
    <path d="M1019.046,341.61c-1,.8-1.4,1.5-.8,1.5a8.141,8.141,0,0,0,3-1.5c1-.8,1.4-1.5.8-1.5A8.141,8.141,0,0,0,1019.046,341.61Z" transform="translate(-48 -46.174)"/>
  </g>
  <path class="cls-1" d="M899.621,514.962H845.528V735.467q0,51.081-17.28,89.216t-48.27,63.484q-30.993,25.356-73.44,37.94t-92.409,12.584a206.991,206.991,0,0,1-36.814-3.192,151.172,151.172,0,0,1-31.178-8.828q-13.524-5.636-21.6-13.335t-8.076-17.093a52.217,52.217,0,0,1,1.878-13.711,42.388,42.388,0,0,1,5.635-12.584,32.109,32.109,0,0,1,9.2-9.2,21.749,21.749,0,0,1,12.208-3.569,8.985,8.985,0,0,1,7.512,4.133,104.491,104.491,0,0,1,6.387,10.142q3.381,6,7.888,13.335a58.041,58.041,0,0,0,27.8,23.479q9.762,4.128,24.417,4.131,28.921,0,51.088-10.518a101.668,101.668,0,0,0,37-29.488q14.834-18.973,22.539-45.453t7.7-58.414V745.609a304.4,304.4,0,0,1-31.742,5.072,343.418,343.418,0,0,1-35.874,1.69q-51.092,0-95.79-15.59a206.869,206.869,0,0,1-77.947-48.27q-33.246-32.68-52.4-83.394T424.8,484.158q0-48.828,10.518-90.155t29.3-74.566a259.92,259.92,0,0,1,44.514-58.413,263.567,263.567,0,0,1,119.831-67.617,272.911,272.911,0,0,1,68.18-8.639,283.033,283.033,0,0,1,60.855,6.2q28.173,6.2,49.022,18.032t32.87,29.3a68.274,68.274,0,0,1,12.02,39.631,69.238,69.238,0,0,1-3.568,21.224,70.627,70.627,0,0,1-10.331,20.285,53.467,53.467,0,0,1-17.092,15.026,47.724,47.724,0,0,1-23.854,5.822q-16.155,0-23.853-9.2a61.888,61.888,0,0,1-11.646-22.727,180.335,180.335,0,0,1-5.822-29.676A148.067,148.067,0,0,0,749.362,249a57.142,57.142,0,0,0-13.711-22.727q-9.209-9.2-26.859-9.2-13.154,0-29.676,6.386t-33.432,20.1q-16.9,13.718-33.246,34.935t-28.924,50.9q-12.59,29.679-20.285,68.179t-7.7,86.587q0,53.346,6.762,91.1t17.843,63.108q11.076,25.357,25.544,40.2t29.864,22.351a100.4,100.4,0,0,0,30.615,9.579,208.861,208.861,0,0,0,27.986,2.066,129.27,129.27,0,0,0,24.042-2.066,91.65,91.65,0,0,0,19.533-5.823v-189.7H671.6V481.529H899.621Z" transform="translate(-48 -46.174)"/>
  <path class="cls-2" d="M877.621,490.879H823.528V711.384q0,51.081-17.28,89.216t-48.27,63.484q-30.993,25.356-73.44,37.94t-92.409,12.584a206.991,206.991,0,0,1-36.814-3.192,151.172,151.172,0,0,1-31.178-8.828q-13.524-5.635-21.6-13.335t-8.076-17.093a52.217,52.217,0,0,1,1.878-13.711,42.388,42.388,0,0,1,5.635-12.584,32.109,32.109,0,0,1,9.2-9.2,21.749,21.749,0,0,1,12.208-3.569,8.985,8.985,0,0,1,7.512,4.133,104.491,104.491,0,0,1,6.387,10.142q3.381,6,7.888,13.335a58.041,58.041,0,0,0,27.8,23.479q9.762,4.128,24.417,4.131,28.921,0,51.088-10.518a101.668,101.668,0,0,0,37-29.488q14.834-18.974,22.539-45.453t7.7-58.414V721.526a304.4,304.4,0,0,1-31.742,5.072,343.418,343.418,0,0,1-35.874,1.69q-51.092,0-95.79-15.59a206.869,206.869,0,0,1-77.947-48.27q-33.246-32.681-52.4-83.394T402.8,460.076q0-48.829,10.518-90.156t29.3-74.566a259.92,259.92,0,0,1,44.514-58.413,263.577,263.577,0,0,1,119.831-67.616,272.912,272.912,0,0,1,68.18-8.64,283.031,283.031,0,0,1,60.855,6.2q28.173,6.2,49.022,18.031t32.87,29.3a68.273,68.273,0,0,1,12.02,39.63,69.228,69.228,0,0,1-3.568,21.224,70.614,70.614,0,0,1-10.331,20.285,53.455,53.455,0,0,1-17.092,15.026,47.714,47.714,0,0,1-23.854,5.823q-16.155,0-23.853-9.2a61.9,61.9,0,0,1-11.646-22.727,180.376,180.376,0,0,1-5.822-29.676,148.062,148.062,0,0,0-6.386-29.677,57.131,57.131,0,0,0-13.711-22.726q-9.209-9.2-26.859-9.2-13.154,0-29.676,6.385t-33.432,20.1q-16.9,13.716-33.246,34.935t-28.924,50.9q-12.59,29.679-20.285,68.18t-7.7,86.587q0,53.344,6.762,91.094t17.843,63.108q11.076,25.357,25.544,40.195t29.864,22.351a100.4,100.4,0,0,0,30.615,9.579,208.861,208.861,0,0,0,27.986,2.066,129.27,129.27,0,0,0,24.042-2.066,91.65,91.65,0,0,0,19.533-5.823v-189.7H649.6V457.446H877.621Z" transform="translate(-48 -46.174)"/>
</svg>
