<svg id="Layer_1" data-name="Layer 1" xmlns="http://www.w3.org/2000/svg" viewBox="0 0 923.44 864.75">
  <defs>
    <style>
      .cls-1 {
        fill: #fff;
      }

      .cls-1, .cls-2 {
        fill-rule: evenodd;
      }

      .cls-3 {
        fill: #878787;
      }

      .cls-4 {
        fill: #b5b5b5;
      }
    </style>
  </defs>
  <title>badgerNoPrefect</title>
  <g id="Warstwa_1">
    <path class="cls-1" d="M563.56,131.67c15.36-96.61-18.11-106.46-87.28-66.11-30.72-7.32-62.51-10-96.2-4.46-51-73.87-111.24-29-104.19,17.47-4.08,76.15-4.27,123.3-8.35,199.44L428.73,380.52l96.57-119.6c5.3-9.34,8.37-17,13.66-26.3,21.62-26.79,23.86-66.22,24.6-103Z" transform="translate(258.72 -21.89)"/>
    <path class="cls-2" d="M487.05,239a94.1,94.1,0,0,0-18.62,26.14c-6,12.25-4.68,36.17-11.84,40-12.32-6.45-13.43-37.66-16.07-56.39-1.1-7.78-.74-17.07,2-25.06s7.89-14.74,8.14-22.52c1.18-38.16-23-78.58,1.09-113.32,16.15.56,28,3.42,32.32,10.4,10.69-3.81,17.49-16.44,25-17.73,11.42-2,19.12,4.69,25,10.47,4.41,4.36,8.21,7.1,9.29,11.6,1.91,8,.9,21.61-7.91,31.22-3.66,4-10.93,6.2-16,10-9.33,7.06-17.14,16.33-23.4,29-8.39,17-13.27,38.38-9,66.17ZM393.82,85.23a113,113,0,0,1,6.43,30.54c1.51,18.39-10.91,36.58-14.17,58-2.25,14.75,1.74,29.25,3,44.93,2.13,27,1.18,55.7-17.14,82-7-8.54-6.39-24.81-10.05-36.3-2.42-7.62-7.86-13-9.67-20.72-2.68-11.46-.29-25.29-1.9-37-2.5-18.24-4.82-35.42-9.21-53.08-6.13.42-17.09-1-23.92-6.34-6.42-5-8.51-14.46-14.32-16.87-4.25-1.77-9-1.23-11.59.21-13.42,7.61-9.45,52-6.61,64.55,2.49,10.94,9.39,27.55,19.77,38.87,12.91,14.11,30.4,23,41.9,37.05,3,3.64,3.11,8.68,4.62,13.18a72.54,72.54,0,0,0,7.08,14.4c10.23,16.77,12.29,42.38,39.9,50.31-3.47-7.85-13.88-13.83-15.47-20.06-1.41-5.49.15-10.6,5.19-15.26,20.34-4,39.7-4.47,55.59,7.84,3.41,2.86,4.59,5.79,4.29,8.75s-8.55,9.6-17.43,13.56c-6.12,2.72-6.81,6.88,4.6,3.69,15.54-7,26.26-20.72,31.62-36.08,5.82-16.69,10.76-27.52,20.95-37.66,15.38-15.3,40.4-24.84,52.17-39.92C528,289,483.06,356.41,446.49,415.42c-11.13,18-23.89,37-38.31,54.72-7.55,9.27-17.45,17.5-23.76,26.47a163.44,163.44,0,0,0-13.26,22.45c-3.93,6.91-5.57,13.66-5.21,20.29.49,9.07,10.46,15.11,11.9,26.51a78.37,78.37,0,0,0,26.08,7.9c4.41.54,9.78,5.31,10.87,10.66-1.29,4.59-4.69,6.58-12.44,2.24.72,12.13-5.2,18-20.8,14.85q-14.47,4.46-26.74-3c-26.5.8-45-4.24-55.22-15.4-5.55-6.08-4.54-13.43-5.06-23.2-.4-7.6,1.11-17.07-.63-26.77-18.3,8.12-34.79,8.57-50.15,3.79C191.32,520.62,209,438.42,99.28,401.69,52.73,414.81-12.54,404.28-36.29,438c-3,8.87-3.09,24.36-2.6,35,23.07,25.83,40.58,22.92,46.53,30.85,5.26,7,1.94,11.62-12.91,12.42-13.19,3.29-27,2.78-42.53,2.31-9.34-.28-21.42.36-30.46-4.72-22.06,1.19-30-12.35-34-31.76-9.43-6.77-18.14-14.79-23.15-24.9-5.68-11.46-8.74-24.89-9.71-39.91-5.6-6.28-7.32-13.53-8.92-20.8.93-28-7.36-22-8.91-1.49-10.72,27.37-23.3,44.93-35.59,56.12-13.2,12-25.31,18-35.14,19.62a39,39,0,0,1-16.93-1.08c-5.08-1.56-9.38-9.22-7.78-16.48,2.67-12.1,24.62-30,29.42-58.74.58-28.82,2.23-62.56,0-90.81-.93-11.92-17.68-15.79-16.62-28,2.94-34,14.38-69,38.77-105.75Q-93.11-24.33,276.08,78.55c3.88-1,4.77-4.93,8.58-5.65,5.54-1,9.92,15.43,15.89,15.73,8.72.45,19-14.7,26.53-13.25,13.54,2.63,16,19.86,38.51,18.4.69-4.68,2-6.84,4.81-7,5.48-.35,13.57-1.65,23.42-1.53Zm62.46,147.85q19.83,2.13,21.87-17.24C466.56,205.45,452.91,212.12,456.28,233.08Zm-95.11-25.77Q353.66,231.87,377.3,229C378.64,219.22,374.72,211.1,361.17,207.31Zm-59.09,272c-4.67-33.34,2.1-61.1,16.71-85.05a511.87,511.87,0,0,1-73.17,2.23c20.52,25.73,38.41,52.26,49,81A15,15,0,0,0,302.08,479.31Z" transform="translate(258.72 -21.89)"/>
    <path class="cls-3" d="M235.06,590.55h47.85V440.93a26.44,26.44,0,0,0-1.31-9.2,12.9,12.9,0,0,0-3.68-5.39,12.5,12.5,0,0,0-5.66-2.63,36.77,36.77,0,0,0-7.23-.66,70.74,70.74,0,0,0-14.33,1.84,119.77,119.77,0,0,0-18,5.52,149.48,149.48,0,0,0-19.06,9.08,92.24,92.24,0,0,0-17.1,12.22A61.4,61.4,0,0,0,184.31,467a36.41,36.41,0,0,0-4.74,18.15q0,8.42,2.24,13.41a21,21,0,0,0,5.13,7.49,13.4,13.4,0,0,0,5.91,3.16,23.41,23.41,0,0,0,4.34.66A22.87,22.87,0,0,0,208,507.59a62.94,62.94,0,0,0,7.63-4.73c2.27-1.67,4.42-3.24,6.44-4.74a11.46,11.46,0,0,1,7-2.23,17.66,17.66,0,0,1,6.7,1.45,19,19,0,0,1,6.58,4.6,26.17,26.17,0,0,1,5.12,8.28,32.78,32.78,0,0,1,2.11,12.49q0,10.51-4.08,18.14a40.38,40.38,0,0,1-10.52,12.76,43.42,43.42,0,0,1-14.72,7.62,56.53,56.53,0,0,1-16.44,2.5A57.24,57.24,0,0,1,181,559.39a50.19,50.19,0,0,1-17.22-12A51.42,51.42,0,0,1,153,529.55a64.22,64.22,0,0,1-3.68-21.83,82.42,82.42,0,0,1,6.58-33.26,93.68,93.68,0,0,1,18-27.22,121.57,121.57,0,0,1,26.82-21.16A176.6,176.6,0,0,1,234,411a224,224,0,0,1,37.34-9.08,253.85,253.85,0,0,1,38.92-3q21.56,0,33.53,4.08t17.61,9.86q5.66,5.77,6.71,12.09a66.33,66.33,0,0,1,1.05,10.52V590.55h96.77V464.07q0-43.38,11.3-73.89t29.19-49.83q17.88-19.32,40-28.13a117.9,117.9,0,0,1,43.91-8.81,176.19,176.19,0,0,1,28.53,2.23,98.72,98.72,0,0,1,23.67,6.71,46.84,46.84,0,0,1,16.17,11.17,22.65,22.65,0,0,1,6.05,15.65,23.6,23.6,0,0,1-4.47,13.94,17.35,17.35,0,0,1-4.87,4.6,10.6,10.6,0,0,1-5.65,1.71,13.18,13.18,0,0,1-8.41-2.9,38.55,38.55,0,0,1-7-7.23q-3.3-4.34-6.44-9.46a63.76,63.76,0,0,0-7.1-9.47,37.55,37.55,0,0,0-8.94-7.23A23.24,23.24,0,0,0,600,320.24q-16,0-25.5,8.81t-14.47,25.77q-5,16.95-6.44,42.2t-1.44,57.85V590.55H605v23.14H552.18V773.57q0,7.62,3.28,12.22t10.13,4.6a35.27,35.27,0,0,0,13.67-2.62q6.32-2.62,11-5l4.47,9.73q-5.78,3.94-13.54,8.28a155.61,155.61,0,0,1-17.09,8.15,133,133,0,0,1-20,6.31,96.77,96.77,0,0,1-22.22,2.5Q504,817.74,493,813t-17.09-12.49a41.27,41.27,0,0,1-8-17.49,98.59,98.59,0,0,1-2-19.72V613.69H369.16V744.64q0,35.76-13,62.32a125.77,125.77,0,0,1-35.63,44.31Q297.9,869,267.27,877.83a236.6,236.6,0,0,1-65.61,8.81,144.61,144.61,0,0,1-25.77-2.24,105.67,105.67,0,0,1-21.82-6.18A49.09,49.09,0,0,1,139,868.89q-5.65-5.4-5.66-11.71a36.49,36.49,0,0,1,1.32-9.59,29.83,29.83,0,0,1,3.94-8.81A24.45,24.45,0,0,1,145,832.2a14.76,14.76,0,0,1,8.55-2.62,6.42,6.42,0,0,1,5.13,2.89,54.8,54.8,0,0,1,4.6,7.23q2.37,4.34,5.39,9.33a40.67,40.67,0,0,0,7.89,9.34,42,42,0,0,0,11.7,7.23q6.84,2.89,17.09,2.89,20.25,0,34.84-7.36a64.71,64.71,0,0,0,24.06-20.77q9.47-13.41,14.07-32a168.41,168.41,0,0,0,4.6-40.63V613.69H235.06Z" transform="translate(258.72 -21.89)"/>
    <path class="cls-4" d="M214.05,585H261.9V435.35a26.44,26.44,0,0,0-1.31-9.2,12.9,12.9,0,0,0-3.68-5.39,12.5,12.5,0,0,0-5.66-2.63,36.77,36.77,0,0,0-7.23-.66,70.74,70.74,0,0,0-14.33,1.84,119.77,119.77,0,0,0-18,5.52,149.48,149.48,0,0,0-19.06,9.08,92.24,92.24,0,0,0-17.1,12.22,61.4,61.4,0,0,0-12.22,15.25,36.41,36.41,0,0,0-4.74,18.15q0,8.42,2.24,13.41a21,21,0,0,0,5.13,7.49,13.4,13.4,0,0,0,5.91,3.16,23.29,23.29,0,0,0,4.34.66A22.87,22.87,0,0,0,187,502a62.94,62.94,0,0,0,7.63-4.73c2.27-1.67,4.42-3.24,6.44-4.74a11.46,11.46,0,0,1,7-2.23,17.66,17.66,0,0,1,6.7,1.45,19,19,0,0,1,6.58,4.6,26.17,26.17,0,0,1,5.12,8.28,32.78,32.78,0,0,1,2.11,12.49q0,10.51-4.08,18.14A40.38,40.38,0,0,1,213.91,548a43.42,43.42,0,0,1-14.72,7.62,56.53,56.53,0,0,1-16.44,2.5A57.24,57.24,0,0,1,160,553.81a50.19,50.19,0,0,1-17.22-12A51.42,51.42,0,0,1,132,524a64.22,64.22,0,0,1-3.68-21.83,82.42,82.42,0,0,1,6.58-33.26,93.68,93.68,0,0,1,18-27.22,121.57,121.57,0,0,1,26.82-21.16A176.6,176.6,0,0,1,213,405.38a224,224,0,0,1,37.34-9.08,253.75,253.75,0,0,1,38.92-3q21.56,0,33.53,4.08t17.61,9.86Q346,413,347.1,419.31a66.33,66.33,0,0,1,1,10.52V585h96.77V458.49q0-43.38,11.3-73.89t29.19-49.83q17.88-19.32,40-28.13a117.9,117.9,0,0,1,43.91-8.81,176.19,176.19,0,0,1,28.53,2.23,98.72,98.72,0,0,1,23.67,6.71,46.84,46.84,0,0,1,16.17,11.17,22.65,22.65,0,0,1,6.05,15.65,23.6,23.6,0,0,1-4.47,13.94,17.35,17.35,0,0,1-4.87,4.6,10.6,10.6,0,0,1-5.65,1.71,13.23,13.23,0,0,1-8.41-2.89,38.93,38.93,0,0,1-7-7.24q-3.3-4.33-6.44-9.46a63.76,63.76,0,0,0-7.1-9.47,37.55,37.55,0,0,0-8.94-7.23A23.24,23.24,0,0,0,579,314.66q-16,0-25.5,8.81t-14.47,25.77q-5,17-6.44,42.2t-1.44,57.85V585H584v23.14H531.17V768q0,7.62,3.28,12.22t10.13,4.6a35.27,35.27,0,0,0,13.67-2.62q6.32-2.62,11-5l4.47,9.73q-5.78,3.95-13.54,8.28a155.61,155.61,0,0,1-17.09,8.15,132.69,132.69,0,0,1-20,6.31,96.77,96.77,0,0,1-22.22,2.5q-17.9,0-28.93-4.73t-17.09-12.49a41.39,41.39,0,0,1-8-17.49,98.59,98.59,0,0,1-2-19.72V608.11H348.15V739.06q0,35.76-13,62.32a125.77,125.77,0,0,1-35.63,44.31q-22.61,17.74-53.24,26.56a236.6,236.6,0,0,1-65.61,8.81,144.61,144.61,0,0,1-25.77-2.24,105.67,105.67,0,0,1-21.82-6.18,49.09,49.09,0,0,1-15.12-9.33q-5.66-5.4-5.66-11.71A36.49,36.49,0,0,1,113.6,842a29.83,29.83,0,0,1,3.94-8.81,24.45,24.45,0,0,1,6.44-6.58,14.76,14.76,0,0,1,8.55-2.62,6.42,6.42,0,0,1,5.13,2.89,54.8,54.8,0,0,1,4.6,7.23q2.37,4.33,5.39,9.33a40.67,40.67,0,0,0,7.89,9.34,42,42,0,0,0,11.7,7.23q6.84,2.9,17.09,2.89,20.25,0,34.84-7.36a64.71,64.71,0,0,0,24.06-20.77q9.47-13.41,14.07-31.95a168.41,168.41,0,0,0,4.6-40.63V608.11H214.05Z" transform="translate(258.72 -21.89)"/>
  </g>
</svg>
