<svg id="Layer_1" data-name="Layer 1" xmlns="http://www.w3.org/2000/svg" viewBox="0 0 1061.471 423.781">
  <defs>
    <style>
      .cls-1 {
        fill: #511b1b;
      }

      .cls-2 {
        fill: #9b2c2c;
      }
    </style>
  </defs>
  <title>is</title>
  <g>
    <g>
      <path class="cls-1" d="M6954.141,7001.041q0,7.521-3.955,10.937t-12.061,3.418q-8.2,0-12.109-3.418t-3.907-10.937V6883.462a9.775,9.775,0,0,0-.488-3.418,4.792,4.792,0,0,0-1.367-2,4.645,4.645,0,0,0-2.1-.976,13.784,13.784,0,0,0-2.685-.244,26.2,26.2,0,0,0-5.323.683,44.324,44.324,0,0,0-6.689,2.051,56.112,56.112,0,0,0-7.08,3.369,34.312,34.312,0,0,0-6.348,4.541,22.774,22.774,0,0,0-4.541,5.664,13.529,13.529,0,0,0-1.758,6.739,12.366,12.366,0,0,0,.831,4.98,7.829,7.829,0,0,0,1.9,2.783,4.979,4.979,0,0,0,2.2,1.172,8.68,8.68,0,0,0,1.611.244,8.5,8.5,0,0,0,4-.83,23.069,23.069,0,0,0,2.832-1.758q1.269-.927,2.393-1.757a4.239,4.239,0,0,1,2.588-.83,6.633,6.633,0,0,1,2.49.537,7.086,7.086,0,0,1,2.441,1.709,9.754,9.754,0,0,1,1.905,3.076,12.249,12.249,0,0,1,.781,4.638,14.107,14.107,0,0,1-1.514,6.739,15.009,15.009,0,0,1-3.906,4.736,16.186,16.186,0,0,1-5.469,2.832,21,21,0,0,1-6.1.928,21.241,21.241,0,0,1-8.447-1.611,18.656,18.656,0,0,1-6.4-4.444,19.076,19.076,0,0,1-4-6.64,23.8,23.8,0,0,1-1.367-8.106,30.646,30.646,0,0,1,2.441-12.353,34.8,34.8,0,0,1,6.69-10.108,45.25,45.25,0,0,1,9.961-7.861,65.629,65.629,0,0,1,12.353-5.615,83,83,0,0,1,13.868-3.37,94.177,94.177,0,0,1,14.453-1.123q8.006,0,12.451,1.514a16.583,16.583,0,0,1,6.543,3.662,8.478,8.478,0,0,1,2.49,4.492,24.748,24.748,0,0,1,.391,3.907Z" transform="translate(-6860.834 -6861.88)"/>
      <path class="cls-1" d="M7038.516,6965.2a136.856,136.856,0,0,0-1.123-19.678,41.421,41.421,0,0,0-2.979-11.231q-1.856-3.857-4.1-5.078a9.522,9.522,0,0,0-4.59-1.22,8.657,8.657,0,0,0-5.03,1.513,18.591,18.591,0,0,0-3.808,3.467,28.528,28.528,0,0,0-2.735,3.906,24.159,24.159,0,0,1-1.9,2.93v65.234a14.97,14.97,0,0,1-.391,3.077,7.23,7.23,0,0,1-1.9,3.418,11.781,11.781,0,0,1-4.492,2.734,23.829,23.829,0,0,1-8.154,1.123,22.048,22.048,0,0,1-8.155-1.221,12.8,12.8,0,0,1-4.541-2.881,7.364,7.364,0,0,1-1.953-3.418,13.728,13.728,0,0,1-.39-2.832v-75.39a9.083,9.083,0,0,0-1.319-4.932,4.835,4.835,0,0,0-4.443-2.1,6.281,6.281,0,0,0-2.832.585,15.242,15.242,0,0,0-2.539,1.661l-2.051-2.442a54.883,54.883,0,0,1,5.029-3.662,39.136,39.136,0,0,1,6.006-3.174,43.285,43.285,0,0,1,6.934-2.246,33.79,33.79,0,0,1,7.812-.879q6.348,0,9.864,2.1a14.013,14.013,0,0,1,5.175,5.029,15.71,15.71,0,0,1,2,6.1,51.172,51.172,0,0,1,.342,5.322,53.234,53.234,0,0,1,8.2-9.277,40.7,40.7,0,0,1,4.151-3.418,36.734,36.734,0,0,1,4.882-2.979,28.421,28.421,0,0,1,5.469-2.1,22.463,22.463,0,0,1,5.908-.782,26.191,26.191,0,0,1,11.768,2.539,21,21,0,0,1,8.643,8.5q3.514,5.958,5.371,15.772a134.386,134.386,0,0,1,1.855,24.365,105.191,105.191,0,0,1-2.539,24.61,70.44,70.44,0,0,1-6.641,17.773,46.15,46.15,0,0,1-9.277,11.963,47.95,47.95,0,0,1-10.449,7.275,42.382,42.382,0,0,1-10.108,3.662,47.4,47.4,0,0,1-8.349,1.123l-1.074-4a19.282,19.282,0,0,0,5.42-2.149,15.219,15.219,0,0,0,4.541-4.3,28.967,28.967,0,0,0,3.613-7.178,65.745,65.745,0,0,0,2.685-10.888,144.323,144.323,0,0,0,1.661-15.479Q7038.513,6977.115,7038.516,6965.2Z" transform="translate(-6860.834 -6861.88)"/>
      <path class="cls-1" d="M7082.461,6963.833a62.053,62.053,0,0,1,3.711-22.412,47.472,47.472,0,0,1,9.912-16.064,40.159,40.159,0,0,1,14.4-9.668,46.593,46.593,0,0,1,17.188-3.223,49.957,49.957,0,0,1,17.187,2.979,39.252,39.252,0,0,1,14.4,9.131,44.632,44.632,0,0,1,9.912,15.576q3.709,9.426,3.711,22.314a64.106,64.106,0,0,1-3.711,22.657,50.409,50.409,0,0,1-9.912,16.6,41.2,41.2,0,0,1-14.4,10.2,43.728,43.728,0,0,1-17.187,3.467h-.586a106.637,106.637,0,0,1,11.963,4.3q6.493,2.733,13.476,5.859t14.063,6.4q7.08,3.27,13.721,5.908a128.077,128.077,0,0,0,12.548,4.3,39.663,39.663,0,0,0,10.6,1.66,24.952,24.952,0,0,0,5.322-.488,12.329,12.329,0,0,0,3.662-1.368,7.43,7.43,0,0,0,2.3-2.05,12.7,12.7,0,0,0,1.416-2.637l2.93.586a35.682,35.682,0,0,1-2.3,10.107,24.479,24.479,0,0,1-4.883,7.813,21.35,21.35,0,0,1-7.373,5.078,24.738,24.738,0,0,1-9.668,1.807,42.749,42.749,0,0,1-13.769-2.539,149.764,149.764,0,0,1-15.381-6.3q-7.96-3.76-16.113-8.155t-15.918-8.154a151.669,151.669,0,0,0-14.844-6.3,38.2,38.2,0,0,0-12.744-2.539,8.442,8.442,0,0,0-8.2,4.981l-3.028-.977a27.338,27.338,0,0,1,1.465-4.687,22.841,22.841,0,0,1,3.613-6.055,23.9,23.9,0,0,1,6.3-5.371,20.692,20.692,0,0,1,9.424-2.735,41.523,41.523,0,0,1-12.988-5.81,41.076,41.076,0,0,1-10.547-10.3,49.97,49.97,0,0,1-7.08-14.746A65.587,65.587,0,0,1,7082.461,6963.833Zm60.059-.976q0-7.812-.538-15.088a67.738,67.738,0,0,0-2.1-12.939,22.841,22.841,0,0,0-4.492-9.034,9.729,9.729,0,0,0-7.715-3.369,9.5,9.5,0,0,0-7.715,3.565,24.671,24.671,0,0,0-4.492,9.375,68.437,68.437,0,0,0-2.051,13.232q-.49,7.422-.488,15.234t.488,15.284a69.5,69.5,0,0,0,2.051,13.33,24.663,24.663,0,0,0,4.492,9.424,9.494,9.494,0,0,0,7.715,3.564,9.351,9.351,0,0,0,7.715-3.711,26.148,26.148,0,0,0,4.492-9.766,76.585,76.585,0,0,0,2.1-13.671Q7142.518,6970.669,7142.52,6962.857Z" transform="translate(-6860.834 -6861.88)"/>
      <path class="cls-1" d="M7276.5,6996.841q0,.879.1,1.9a6.568,6.568,0,0,0,.488,1.953,3.58,3.58,0,0,0,1.172,1.513,3.688,3.688,0,0,0,2.246.586,4.829,4.829,0,0,0,3.32-1.318q1.465-1.318,2.735-2.686l2.343,2.051a57.428,57.428,0,0,1-3.662,4.541,31.869,31.869,0,0,1-5.322,4.737,30.765,30.765,0,0,1-7.129,3.759,25.553,25.553,0,0,1-9.082,1.514,22.426,22.426,0,0,1-7.471-1.123,16.5,16.5,0,0,1-5.371-3.027,11.933,11.933,0,0,1-3.271-4.493,14.225,14.225,0,0,1-1.075-5.517v-4.395a75.463,75.463,0,0,1-10.253,9.278q-2.345,1.758-4.981,3.418a49.145,49.145,0,0,1-5.469,2.978,34.058,34.058,0,0,1-5.859,2.1,24.192,24.192,0,0,1-6.055.781,21.962,21.962,0,0,1-10.01-2.1,18.623,18.623,0,0,1-6.689-5.517,22.879,22.879,0,0,1-3.711-7.715,32.537,32.537,0,0,1-1.172-8.594v-60.449q0-.879-.1-1.9a6.662,6.662,0,0,0-.489-1.953,3.6,3.6,0,0,0-1.172-1.514,3.692,3.692,0,0,0-2.246-.586,4.889,4.889,0,0,0-3.271,1.318,26.176,26.176,0,0,0-2.686,2.686l-2.441-2.051a57.428,57.428,0,0,1,3.662-4.541,31.825,31.825,0,0,1,5.322-4.736,30.565,30.565,0,0,1,7.178-3.76,25.652,25.652,0,0,1,9.033-1.514,22.9,22.9,0,0,1,7.52,1.123,15.862,15.862,0,0,1,5.371,3.028,12.2,12.2,0,0,1,3.222,4.492,14.247,14.247,0,0,1,1.075,5.517v65.235a9.347,9.347,0,0,0,.439,2.783,9.106,9.106,0,0,0,1.27,2.588,6.535,6.535,0,0,0,2.1,1.9,5.952,5.952,0,0,0,3.028.733,12.246,12.246,0,0,0,5.664-1.465,27.128,27.128,0,0,0,5.175-3.467,38.9,38.9,0,0,0,4.053-3.955q1.708-1.953,2.49-2.93v-57.031q0-.879-.1-1.9a6.692,6.692,0,0,0-.488-1.953,3.613,3.613,0,0,0-1.172-1.514,3.694,3.694,0,0,0-2.246-.586,4.892,4.892,0,0,0-3.272,1.318,26.063,26.063,0,0,0-2.685,2.686l-2.442-2.051a57.657,57.657,0,0,1,3.662-4.541,31.825,31.825,0,0,1,5.322-4.736,30.565,30.565,0,0,1,7.178-3.76,25.652,25.652,0,0,1,9.033-1.514,22.893,22.893,0,0,1,7.52,1.123,15.862,15.862,0,0,1,5.371,3.028,12.2,12.2,0,0,1,3.223,4.492,14.247,14.247,0,0,1,1.074,5.517Z" transform="translate(-6860.834 -6861.88)"/>
      <path class="cls-1" d="M7333.34,7005.044a13.37,13.37,0,0,1-.44,3.077,7.306,7.306,0,0,1-2.05,3.418,12.765,12.765,0,0,1-4.639,2.734,24.267,24.267,0,0,1-8.2,1.123,21.65,21.65,0,0,1-8.106-1.221,11.808,11.808,0,0,1-4.394-2.881,7.3,7.3,0,0,1-1.807-3.418,15.551,15.551,0,0,1-.342-2.832v-75.39a9.082,9.082,0,0,0-1.318-4.932,4.835,4.835,0,0,0-4.443-2.1,6.281,6.281,0,0,0-2.832.585,15.2,15.2,0,0,0-2.539,1.661l-2.051-2.442a54.883,54.883,0,0,1,5.029-3.662,39.136,39.136,0,0,1,6.006-3.174,43.253,43.253,0,0,1,6.934-2.246,33.79,33.79,0,0,1,7.812-.879q6.346,0,9.863,1.709a12.67,12.67,0,0,1,5.176,4.2,12.1,12.1,0,0,1,2,5.322,42.182,42.182,0,0,1,.342,4.98ZM7300.332,6890.2a11.712,11.712,0,0,1,1.221-5.225,13.32,13.32,0,0,1,3.418-4.346,17.053,17.053,0,0,1,5.078-2.929,17.891,17.891,0,0,1,6.3-1.075,17.614,17.614,0,0,1,6.2,1.075,16.409,16.409,0,0,1,5.029,2.929,13.633,13.633,0,0,1,3.369,4.346,11.893,11.893,0,0,1,0,10.5,13.245,13.245,0,0,1-3.369,4.248,16.884,16.884,0,0,1-5.029,2.881,17.591,17.591,0,0,1-6.2,1.074,17.868,17.868,0,0,1-6.3-1.074,17.563,17.563,0,0,1-5.078-2.881,12.95,12.95,0,0,1-3.418-4.248A11.6,11.6,0,0,1,7300.332,6890.2Z" transform="translate(-6860.834 -6861.88)"/>
      <path class="cls-1" d="M7389.3,6920.279a15.031,15.031,0,0,0-4.248.586,9.662,9.662,0,0,0-3.565,1.9,9.012,9.012,0,0,0-2.441,3.32,11.721,11.721,0,0,0-.879,4.737,12.656,12.656,0,0,0,2.783,7.568,65.65,65.65,0,0,0,6.934,7.813q4.149,4.053,8.984,8.4a99.525,99.525,0,0,1,8.985,9.18,52,52,0,0,1,6.933,10.3,25.477,25.477,0,0,1,2.783,11.719,30.907,30.907,0,0,1-2.392,12.5,25.522,25.522,0,0,1-6.836,9.277,30.418,30.418,0,0,1-10.742,5.811,46.146,46.146,0,0,1-14.014,2,36.961,36.961,0,0,1-12.207-1.9,44.132,44.132,0,0,1-9.717-4.688,42.4,42.4,0,0,1-7.275-5.908,39.41,39.41,0,0,1-4.688-5.664l3.418-2.441a33.1,33.1,0,0,0,3.223,3.173,31.611,31.611,0,0,0,4.346,3.174,25.329,25.329,0,0,0,5.127,2.393,17.19,17.19,0,0,0,5.566.927q7.032,0,11.523-3.369t4.493-10.009a14.605,14.605,0,0,0-2.442-7.666,60.237,60.237,0,0,0-6.152-8.155q-3.712-4.2-8.008-8.691a118.134,118.134,0,0,1-8.008-9.277,54.878,54.878,0,0,1-6.152-9.864,24.05,24.05,0,0,1-2.441-10.547,22.192,22.192,0,0,1,2.49-10.742,22.708,22.708,0,0,1,6.64-7.617,29.744,29.744,0,0,1,9.473-4.541,39.966,39.966,0,0,1,10.986-1.514,56.011,56.011,0,0,1,11.914,1.172,29.208,29.208,0,0,1,9.229,3.565,17.259,17.259,0,0,1,5.957,6,16.428,16.428,0,0,1,2.1,8.4,9.362,9.362,0,0,1-2.442,6.445,8.69,8.69,0,0,1-6.836,2.735q-4.2,0-6.4-1.807a6.042,6.042,0,0,1-2.2-4.932,4.724,4.724,0,0,1,1.026-3.222,9.04,9.04,0,0,1,2.3-1.9q1.267-.732,2.295-1.269a1.6,1.6,0,0,0,1.025-1.416q0-2.733-2.93-4.346A15.512,15.512,0,0,0,7389.3,6920.279Z" transform="translate(-6860.834 -6861.88)"/>
      <path class="cls-1" d="M7464.883,7005.044a13.37,13.37,0,0,1-.44,3.077,7.306,7.306,0,0,1-2.05,3.418,12.773,12.773,0,0,1-4.639,2.734,24.267,24.267,0,0,1-8.2,1.123,21.65,21.65,0,0,1-8.106-1.221,11.808,11.808,0,0,1-4.394-2.881,7.3,7.3,0,0,1-1.807-3.418,15.551,15.551,0,0,1-.342-2.832v-75.39a9.082,9.082,0,0,0-1.318-4.932,4.835,4.835,0,0,0-4.443-2.1,6.281,6.281,0,0,0-2.832.585,15.2,15.2,0,0,0-2.539,1.661l-2.051-2.442a54.883,54.883,0,0,1,5.029-3.662,39.089,39.089,0,0,1,6.006-3.174,43.253,43.253,0,0,1,6.934-2.246,33.79,33.79,0,0,1,7.812-.879q6.346,0,9.863,1.709a12.67,12.67,0,0,1,5.176,4.2,12.1,12.1,0,0,1,2,5.322,42.182,42.182,0,0,1,.342,4.98ZM7431.875,6890.2a11.712,11.712,0,0,1,1.221-5.225,13.32,13.32,0,0,1,3.418-4.346,17.053,17.053,0,0,1,5.078-2.929,17.891,17.891,0,0,1,6.3-1.075,17.614,17.614,0,0,1,6.2,1.075,16.421,16.421,0,0,1,5.029,2.929,13.633,13.633,0,0,1,3.369,4.346,11.893,11.893,0,0,1,0,10.5,13.245,13.245,0,0,1-3.369,4.248,16.9,16.9,0,0,1-5.029,2.881,17.591,17.591,0,0,1-6.2,1.074,17.868,17.868,0,0,1-6.3-1.074,17.563,17.563,0,0,1-5.078-2.881,12.95,12.95,0,0,1-3.418-4.248A11.6,11.6,0,0,1,7431.875,6890.2Z" transform="translate(-6860.834 -6861.88)"/>
      <path class="cls-1" d="M7521.133,6920.865v72.168q0,5.177,1.953,7.177a7.155,7.155,0,0,0,5.371,2,7.868,7.868,0,0,0,4.688-1.464,17.092,17.092,0,0,0,3.515-3.321,20.7,20.7,0,0,0,3.028-4.785l3.027,1.367q-1.466,3.128-3.467,6.836a27.074,27.074,0,0,1-13.672,12.207,32.355,32.355,0,0,1-12.646,2.149,26.865,26.865,0,0,1-8.252-1.27,19.363,19.363,0,0,1-7.032-4,20.042,20.042,0,0,1-4.931-6.836,23.805,23.805,0,0,1-1.856-9.863v-72.363h-10.937v-7.032a29.424,29.424,0,0,0,7.617-1.416,37.966,37.966,0,0,0,10.01-4.736,39.766,39.766,0,0,0,9.521-8.887,33.961,33.961,0,0,0,6.25-13.769h7.813v28.808h15.918q7.812,0,7.812-2.636a1.306,1.306,0,0,0-.976-1.319q-.978-.34-2.2-.878a7.155,7.155,0,0,1-2.2-1.514,4.435,4.435,0,0,1-.976-3.223,5.531,5.531,0,0,1,1.709-4.3,6.332,6.332,0,0,1,4.443-1.562,6.234,6.234,0,0,1,3.076.732,6.676,6.676,0,0,1,2.2,1.953,8.814,8.814,0,0,1,1.319,2.784,11.5,11.5,0,0,1,.439,3.125q0,6.348-3.662,10.107t-11.767,3.76Z" transform="translate(-6860.834 -6861.88)"/>
      <path class="cls-1" d="M7548.672,6963.833a62.053,62.053,0,0,1,3.711-22.412,47.456,47.456,0,0,1,9.912-16.064,40.15,40.15,0,0,1,14.4-9.668,46.593,46.593,0,0,1,17.188-3.223,49.961,49.961,0,0,1,17.187,2.979,39.244,39.244,0,0,1,14.405,9.131,44.632,44.632,0,0,1,9.912,15.576q3.709,9.426,3.711,22.314a64.106,64.106,0,0,1-3.711,22.657,50.409,50.409,0,0,1-9.912,16.6,41.188,41.188,0,0,1-14.405,10.2,43.731,43.731,0,0,1-17.187,3.467,45.991,45.991,0,0,1-17.188-3.271,40.709,40.709,0,0,1-14.4-9.717,47.351,47.351,0,0,1-9.912-16.114A62.443,62.443,0,0,1,7548.672,6963.833Zm60.058-.976q0-7.812-.537-15.088a67.66,67.66,0,0,0-2.1-12.939,22.841,22.841,0,0,0-4.492-9.034,9.73,9.73,0,0,0-7.715-3.369,9.5,9.5,0,0,0-7.715,3.565,24.685,24.685,0,0,0-4.492,9.375,68.437,68.437,0,0,0-2.051,13.232q-.489,7.422-.488,15.234t.488,15.284a69.5,69.5,0,0,0,2.051,13.33,24.678,24.678,0,0,0,4.492,9.424,9.494,9.494,0,0,0,7.715,3.564,9.352,9.352,0,0,0,7.715-3.711,26.148,26.148,0,0,0,4.492-9.766,76.5,76.5,0,0,0,2.1-13.671Q7608.73,6970.669,7608.73,6962.857Z" transform="translate(-6860.834 -6861.88)"/>
      <path class="cls-1" d="M7688.516,6933.072a80.53,80.53,0,0,1,7.91-10.254,52.822,52.822,0,0,1,3.808-3.809,36.86,36.86,0,0,1,4.248-3.32,22.28,22.28,0,0,1,4.541-2.344,13.271,13.271,0,0,1,4.688-.879,10.263,10.263,0,0,1,7.812,2.979q2.832,2.98,2.832,8.349a37.149,37.149,0,0,1-.537,6.4,47.425,47.425,0,0,1-2.1,7.471h-2.735a9.033,9.033,0,0,0-2.734-5.03q-2.149-2-6.25-2a16.552,16.552,0,0,0-5.957,1.123,37.02,37.02,0,0,0-5.713,2.784,50.443,50.443,0,0,0-5.273,3.613q-2.492,1.955-4.541,3.711v63.379a14.3,14.3,0,0,1-.391,3.027,6.959,6.959,0,0,1-1.9,3.32,12.157,12.157,0,0,1-4.492,2.686,23.835,23.835,0,0,1-8.155,1.123,22.042,22.042,0,0,1-8.154-1.221,12.8,12.8,0,0,1-4.541-2.881,7.364,7.364,0,0,1-1.953-3.418,13.672,13.672,0,0,1-.391-2.832v-75.39a9.082,9.082,0,0,0-1.318-4.932,4.837,4.837,0,0,0-4.444-2.1,6.287,6.287,0,0,0-2.832.585,15.242,15.242,0,0,0-2.539,1.661l-2.05-2.442a54.746,54.746,0,0,1,5.029-3.662,39.043,39.043,0,0,1,6.006-3.174,43.273,43.273,0,0,1,6.933-2.246,33.8,33.8,0,0,1,7.813-.879,20.437,20.437,0,0,1,7.178,1.123,14.353,14.353,0,0,1,4.882,2.93,13.762,13.762,0,0,1,2.979,4.053,22.314,22.314,0,0,1,1.611,4.541,24.252,24.252,0,0,1,.635,4.394Q7688.514,6931.609,7688.516,6933.072Z" transform="translate(-6860.834 -6861.88)"/>
      <path class="cls-1" d="M7767.91,7005.044a13.362,13.362,0,0,1-.439,3.077,7.308,7.308,0,0,1-2.051,3.418,12.756,12.756,0,0,1-4.639,2.734,24.263,24.263,0,0,1-8.2,1.123,21.644,21.644,0,0,1-8.105-1.221,11.821,11.821,0,0,1-4.395-2.881,7.307,7.307,0,0,1-1.807-3.418,15.535,15.535,0,0,1-.341-2.832v-75.39a9.083,9.083,0,0,0-1.319-4.932,4.835,4.835,0,0,0-4.443-2.1,6.284,6.284,0,0,0-2.832.585,15.242,15.242,0,0,0-2.539,1.661l-2.051-2.442a54.883,54.883,0,0,1,5.029-3.662,39.136,39.136,0,0,1,6.006-3.174,43.285,43.285,0,0,1,6.934-2.246,33.79,33.79,0,0,1,7.812-.879q6.348,0,9.864,1.709a12.673,12.673,0,0,1,5.175,4.2,12.1,12.1,0,0,1,2,5.322,42.182,42.182,0,0,1,.342,4.98ZM7734.9,6890.2a11.725,11.725,0,0,1,1.221-5.225,13.333,13.333,0,0,1,3.418-4.346,17.053,17.053,0,0,1,5.078-2.929,17.9,17.9,0,0,1,6.3-1.075,17.614,17.614,0,0,1,6.2,1.075,16.409,16.409,0,0,1,5.029,2.929,13.65,13.65,0,0,1,3.37,4.346,11.9,11.9,0,0,1,0,10.5,13.262,13.262,0,0,1-3.37,4.248,16.884,16.884,0,0,1-5.029,2.881,17.591,17.591,0,0,1-6.2,1.074,17.872,17.872,0,0,1-6.3-1.074,17.563,17.563,0,0,1-5.078-2.881,12.963,12.963,0,0,1-3.418-4.248A11.615,11.615,0,0,1,7734.9,6890.2Z" transform="translate(-6860.834 -6861.88)"/>
      <path class="cls-1" d="M7820.938,6920.474a23.108,23.108,0,0,0-6.153.781,21.262,21.262,0,0,0-4.883,1.953,11.622,11.622,0,0,0-3.222,2.588,4.314,4.314,0,0,0-1.172,2.686,2.167,2.167,0,0,0,1.513,2.1q1.514.636,3.37,1.464a11.265,11.265,0,0,1,3.369,2.344,6.318,6.318,0,0,1,1.513,4.639,8.5,8.5,0,0,1-.83,3.76,10.18,10.18,0,0,1-5.566,5.078,10.933,10.933,0,0,1-3.955.732,11.367,11.367,0,0,1-8.838-3.711q-3.369-3.709-3.369-9.863a16.743,16.743,0,0,1,3.125-10.2,24.423,24.423,0,0,1,8.154-6.983,41.3,41.3,0,0,1,11.377-4.052,63.245,63.245,0,0,1,27.246.341,36.948,36.948,0,0,1,12.256,5.274,27.31,27.31,0,0,1,8.5,9.18,26.81,26.81,0,0,1,3.174,13.476v55.176q0,.879.1,1.953a6.1,6.1,0,0,0,.488,1.953,3.334,3.334,0,0,0,3.418,2.051,4.889,4.889,0,0,0,3.271-1.318,25.978,25.978,0,0,0,2.686-2.686l2.441,2.051q-1.464,2.051-3.515,4.492a28.151,28.151,0,0,1-11.817,8.2,25.174,25.174,0,0,1-8.886,1.465,17.518,17.518,0,0,1-10.938-3.662q-4.785-3.663-6.25-11.279a41.485,41.485,0,0,1-6.494,7.031,35.156,35.156,0,0,1-6.885,4.59,30.392,30.392,0,0,1-7.08,2.539,33.49,33.49,0,0,1-7.178.781,28.521,28.521,0,0,1-9.082-1.465,21.66,21.66,0,0,1-7.861-4.639,22.736,22.736,0,0,1-5.566-8.251,32.464,32.464,0,0,1-2.1-12.4q0-8.884,3.516-14.551a31.393,31.393,0,0,1,9.228-9.521,62.287,62.287,0,0,1,12.988-6.592q7.275-2.733,14.893-5.762a15.907,15.907,0,0,0,8.252-6.689,17.928,17.928,0,0,0,2.588-9.131q0-7.226-4.248-11.572T7820.938,6920.474Zm15.527,42.774a4.5,4.5,0,0,0-1.563-3.711,6.15,6.15,0,0,0-4-1.27,14.158,14.158,0,0,0-6.494,1.563,16.065,16.065,0,0,0-5.42,4.589,23.289,23.289,0,0,0-3.711,7.471,35.1,35.1,0,0,0-1.367,10.3,44.045,44.045,0,0,0,.83,9.375,18.353,18.353,0,0,0,2.246,5.908,8.118,8.118,0,0,0,3.272,3.076,9.011,9.011,0,0,0,3.906.879,9.3,9.3,0,0,0,4.785-1.318,14.343,14.343,0,0,0,3.907-3.369,16.872,16.872,0,0,0,2.636-4.59,14.055,14.055,0,0,0,.977-5.078Z" transform="translate(-6860.834 -6861.88)"/>
      <path class="cls-1" d="M7922.305,7005.24a12.775,12.775,0,0,1-.44,3.027,7.026,7.026,0,0,1-2.051,3.32,13.147,13.147,0,0,1-4.687,2.686,24.71,24.71,0,0,1-8.252,1.123,21.644,21.644,0,0,1-8.1-1.221,11.311,11.311,0,0,1-4.346-2.881,7.48,7.48,0,0,1-1.758-3.418,15.551,15.551,0,0,1-.342-2.832V6879.068a9.082,9.082,0,0,0-1.318-4.932,4.835,4.835,0,0,0-4.443-2.1,7.122,7.122,0,0,0-2.881.537,12.228,12.228,0,0,0-2.588,1.611l-1.953-2.344a58.6,58.6,0,0,1,4.98-3.662,36.217,36.217,0,0,1,6.006-3.174,44.987,44.987,0,0,1,6.982-2.246,33.805,33.805,0,0,1,7.813-.879q6.347,0,9.863,1.709a12.67,12.67,0,0,1,5.176,4.2,12.09,12.09,0,0,1,2,5.273,41.184,41.184,0,0,1,.342,4.932Z" transform="translate(-6860.834 -6861.88)"/>
    </g>
    <g>
      <path class="cls-1" d="M7195.7,7250.993a21.985,21.985,0,0,0,7.714-1.416,17.275,17.275,0,0,0,6.787-4.687,24.731,24.731,0,0,0,4.834-8.545,39.133,39.133,0,0,0,1.856-12.891,33.836,33.836,0,0,0-4.053-15.918,90.984,90.984,0,0,0-10.156-15.185q-6.1-7.47-13.184-14.844t-13.183-15.039a88.918,88.918,0,0,1-10.156-15.82,37.8,37.8,0,0,1-4.053-17.041,38.288,38.288,0,0,1,3.271-16.065,36.465,36.465,0,0,1,8.887-12.207,40.01,40.01,0,0,1,13.086-7.763,46.111,46.111,0,0,1,15.966-2.735,62.361,62.361,0,0,1,16.162,1.9,40.779,40.779,0,0,1,12.012,5.175,23.064,23.064,0,0,1,7.471,7.715,18.713,18.713,0,0,1,2.539,9.424,18.255,18.255,0,0,1-.684,4.834,14.24,14.24,0,0,1-2.148,4.541,12.465,12.465,0,0,1-3.711,3.418,9.94,9.94,0,0,1-5.273,1.367q-3.615,0-5.323-2.2a14.671,14.671,0,0,1-2.539-5.42,71.447,71.447,0,0,1-1.416-7.08,32.7,32.7,0,0,0-1.855-7.08,13.686,13.686,0,0,0-3.809-5.42q-2.539-2.2-7.422-2.2a12.541,12.541,0,0,0-5.224,1.172,13.819,13.819,0,0,0-4.687,3.564,17.924,17.924,0,0,0-3.37,6.1,27.233,27.233,0,0,0-1.269,8.789,28.164,28.164,0,0,0,2.441,11.425,57.117,57.117,0,0,0,6.445,10.987,117.052,117.052,0,0,0,9.131,10.84q5.127,5.419,10.449,10.937t10.449,11.328a98.863,98.863,0,0,1,9.131,12.061,64.328,64.328,0,0,1,6.446,13.086,42.37,42.37,0,0,1,2.441,14.355,44.03,44.03,0,0,1-4.248,19.677,42.835,42.835,0,0,1-11.523,14.551,51.76,51.76,0,0,1-17.041,9.033,67.871,67.871,0,0,1-20.8,3.125,57.054,57.054,0,0,1-17.627-2.49,41.989,41.989,0,0,1-12.939-6.592,28.157,28.157,0,0,1-7.959-9.326,23.308,23.308,0,0,1-2.686-10.791,19.144,19.144,0,0,1,.733-5.029,18.139,18.139,0,0,1,2.148-4.932,13.07,13.07,0,0,1,3.565-3.759,8.423,8.423,0,0,1,4.98-1.514,7.285,7.285,0,0,1,4.736,1.465,10.211,10.211,0,0,1,2.881,3.906,29.512,29.512,0,0,1,1.758,5.566q.682,3.126,1.465,6.348a54.858,54.858,0,0,0,1.953,6.348,18.893,18.893,0,0,0,3.223,5.566,14.7,14.7,0,0,0,5.273,3.906A19.608,19.608,0,0,0,7195.7,7250.993Z" transform="translate(-6860.834 -6861.88)"/>
      <path class="cls-1" d="M7261.913,7186.833a62.053,62.053,0,0,1,3.711-22.412,47.462,47.462,0,0,1,9.912-16.064,40.159,40.159,0,0,1,14.4-9.668,46.6,46.6,0,0,1,17.188-3.223,49.957,49.957,0,0,1,17.187,2.979,39.231,39.231,0,0,1,14.405,9.131,44.618,44.618,0,0,1,9.912,15.576q3.709,9.425,3.711,22.314a64.1,64.1,0,0,1-3.711,22.656,50.408,50.408,0,0,1-9.912,16.6,41.2,41.2,0,0,1-14.405,10.2,43.728,43.728,0,0,1-17.187,3.467h-.586a106.476,106.476,0,0,1,11.963,4.3q6.493,2.735,13.476,5.86t14.063,6.4q7.08,3.271,13.721,5.908a127.9,127.9,0,0,0,12.548,4.3,39.623,39.623,0,0,0,10.6,1.66,24.946,24.946,0,0,0,5.322-.488,12.319,12.319,0,0,0,3.663-1.367,7.452,7.452,0,0,0,2.294-2.051,12.69,12.69,0,0,0,1.416-2.636l2.93.585a35.689,35.689,0,0,1-2.3,10.108,24.474,24.474,0,0,1-4.883,7.812,21.336,21.336,0,0,1-7.373,5.078,24.716,24.716,0,0,1-9.668,1.807,42.754,42.754,0,0,1-13.769-2.539,149.314,149.314,0,0,1-15.381-6.3q-7.961-3.761-16.113-8.154t-15.918-8.154a151.425,151.425,0,0,0-14.844-6.3,38.2,38.2,0,0,0-12.744-2.539,8.445,8.445,0,0,0-8.2,4.98l-3.028-.976a27.37,27.37,0,0,1,1.465-4.688,22.9,22.9,0,0,1,3.614-6.055,23.949,23.949,0,0,1,6.3-5.371,20.7,20.7,0,0,1,9.424-2.734,41.525,41.525,0,0,1-12.988-5.811,41.088,41.088,0,0,1-10.547-10.3,50.007,50.007,0,0,1-7.08-14.746A65.587,65.587,0,0,1,7261.913,7186.833Zm60.059-.976q0-7.812-.537-15.088a67.721,67.721,0,0,0-2.1-12.939,22.834,22.834,0,0,0-4.492-9.034,9.729,9.729,0,0,0-7.715-3.369,9.5,9.5,0,0,0-7.715,3.565,24.685,24.685,0,0,0-4.492,9.375,68.437,68.437,0,0,0-2.051,13.232q-.489,7.422-.488,15.234t.488,15.283a69.49,69.49,0,0,0,2.051,13.33,24.671,24.671,0,0,0,4.492,9.424,9.5,9.5,0,0,0,7.715,3.565,9.353,9.353,0,0,0,7.715-3.711,26.155,26.155,0,0,0,4.492-9.766,76.593,76.593,0,0,0,2.1-13.672Q7321.971,7193.669,7321.972,7185.857Z" transform="translate(-6860.834 -6861.88)"/>
      <path class="cls-1" d="M7455.956,7219.841q0,.879.1,1.9a6.56,6.56,0,0,0,.488,1.953,3.589,3.589,0,0,0,1.172,1.514,3.688,3.688,0,0,0,2.246.586,4.83,4.83,0,0,0,3.32-1.319q1.465-1.317,2.735-2.685l2.343,2.051a57.428,57.428,0,0,1-3.662,4.541,31.821,31.821,0,0,1-5.322,4.736,30.805,30.805,0,0,1-7.129,3.76,25.553,25.553,0,0,1-9.082,1.514,22.4,22.4,0,0,1-7.471-1.124,16.484,16.484,0,0,1-5.371-3.027,11.933,11.933,0,0,1-3.271-4.492,14.233,14.233,0,0,1-1.074-5.518v-4.394a75.586,75.586,0,0,1-10.254,9.277q-2.345,1.758-4.981,3.418a49.152,49.152,0,0,1-5.469,2.979,33.971,33.971,0,0,1-5.859,2.1,24.141,24.141,0,0,1-6.055.782,21.968,21.968,0,0,1-10.009-2.1,18.639,18.639,0,0,1-6.69-5.518,22.888,22.888,0,0,1-3.711-7.715,32.535,32.535,0,0,1-1.172-8.593v-60.449q0-.879-.1-1.9a6.662,6.662,0,0,0-.489-1.953,3.6,3.6,0,0,0-1.171-1.514,3.7,3.7,0,0,0-2.247-.586,4.891,4.891,0,0,0-3.271,1.318,26.176,26.176,0,0,0-2.686,2.686l-2.441-2.051a57.657,57.657,0,0,1,3.662-4.541,31.825,31.825,0,0,1,5.322-4.736,30.565,30.565,0,0,1,7.178-3.76,25.652,25.652,0,0,1,9.033-1.514,22.871,22.871,0,0,1,7.52,1.123,15.862,15.862,0,0,1,5.371,3.028,12.191,12.191,0,0,1,3.223,4.492,14.265,14.265,0,0,1,1.074,5.517v65.234a9.358,9.358,0,0,0,.439,2.784,9.1,9.1,0,0,0,1.27,2.587,6.549,6.549,0,0,0,2.1,1.905,5.961,5.961,0,0,0,3.028.732,12.234,12.234,0,0,0,5.664-1.465,27.131,27.131,0,0,0,5.176-3.466,39.09,39.09,0,0,0,4.052-3.956q1.708-1.951,2.491-2.929v-57.031c0-.586-.034-1.221-.1-1.9a6.66,6.66,0,0,0-.488-1.953,3.613,3.613,0,0,0-1.172-1.514,3.694,3.694,0,0,0-2.246-.586,4.892,4.892,0,0,0-3.272,1.318,26.063,26.063,0,0,0-2.685,2.686l-2.442-2.051a57.887,57.887,0,0,1,3.662-4.541,31.834,31.834,0,0,1,5.323-4.736,30.557,30.557,0,0,1,7.177-3.76,25.658,25.658,0,0,1,9.034-1.514,22.865,22.865,0,0,1,7.519,1.123,15.843,15.843,0,0,1,5.371,3.028,12.191,12.191,0,0,1,3.223,4.492,14.247,14.247,0,0,1,1.074,5.517Z" transform="translate(-6860.834 -6861.88)"/>
      <path class="cls-1" d="M7510.058,7143.474a23.108,23.108,0,0,0-6.153.781,21.28,21.28,0,0,0-4.883,1.953,11.6,11.6,0,0,0-3.222,2.588,4.318,4.318,0,0,0-1.172,2.686,2.167,2.167,0,0,0,1.514,2.1q1.512.635,3.369,1.464a11.265,11.265,0,0,1,3.369,2.344,6.318,6.318,0,0,1,1.514,4.639,8.5,8.5,0,0,1-.831,3.76,10.18,10.18,0,0,1-5.566,5.078,10.929,10.929,0,0,1-3.955.732,11.368,11.368,0,0,1-8.838-3.711q-3.369-3.709-3.369-9.863a16.741,16.741,0,0,1,3.125-10.2,24.423,24.423,0,0,1,8.154-6.983,41.269,41.269,0,0,1,11.377-4.052,63.245,63.245,0,0,1,27.246.341,36.948,36.948,0,0,1,12.256,5.274,27.31,27.31,0,0,1,8.5,9.18,26.81,26.81,0,0,1,3.174,13.476v55.175q0,.879.1,1.954a6.1,6.1,0,0,0,.488,1.953,3.656,3.656,0,0,0,1.172,1.465,3.7,3.7,0,0,0,2.246.585,4.889,4.889,0,0,0,3.271-1.318,26.07,26.07,0,0,0,2.686-2.685l2.441,2.05q-1.464,2.052-3.515,4.493a28.175,28.175,0,0,1-11.817,8.2,25.2,25.2,0,0,1-8.886,1.465,17.512,17.512,0,0,1-10.938-3.663q-4.785-3.662-6.25-11.279a41.409,41.409,0,0,1-6.494,7.031,35.156,35.156,0,0,1-6.885,4.59,30.33,30.33,0,0,1-7.08,2.539,33.428,33.428,0,0,1-7.178.782,28.549,28.549,0,0,1-9.082-1.465,21.688,21.688,0,0,1-7.861-4.639,22.753,22.753,0,0,1-5.566-8.252,32.459,32.459,0,0,1-2.1-12.4q0-8.886,3.516-14.551a31.371,31.371,0,0,1,9.228-9.521,62.271,62.271,0,0,1,12.989-6.592q7.274-2.733,14.892-5.762a15.907,15.907,0,0,0,8.252-6.689,17.928,17.928,0,0,0,2.588-9.131q0-7.226-4.248-11.572T7510.058,7143.474Zm15.527,42.774a4.5,4.5,0,0,0-1.563-3.711,6.147,6.147,0,0,0-4-1.27,14.159,14.159,0,0,0-6.495,1.563,16.065,16.065,0,0,0-5.42,4.589,23.267,23.267,0,0,0-3.71,7.471,35.053,35.053,0,0,0-1.368,10.3,44.032,44.032,0,0,0,.83,9.375,18.336,18.336,0,0,0,2.247,5.909,8.116,8.116,0,0,0,3.271,3.076,9.011,9.011,0,0,0,3.906.879,9.3,9.3,0,0,0,4.785-1.319,14.328,14.328,0,0,0,3.907-3.369,16.857,16.857,0,0,0,2.636-4.59,14.051,14.051,0,0,0,.977-5.078Z" transform="translate(-6860.834 -6861.88)"/>
      <path class="cls-1" d="M7634.276,7140.837a101.611,101.611,0,0,0-5.175-18.212,61.527,61.527,0,0,0-7.959-14.6,36.869,36.869,0,0,0-10.547-9.668,24.494,24.494,0,0,0-12.744-3.516,24.011,24.011,0,0,0-7.08.977,28.215,28.215,0,0,0-9.375,4.834q-1.515,1.221-2.2,1.806l-2.539-3.417a32.52,32.52,0,0,1,5.713-5.665,37.551,37.551,0,0,1,7.373-4.492,45.448,45.448,0,0,1,8.447-2.929,37.513,37.513,0,0,1,8.838-1.075q14.453,0,25.391,6.3A52.762,52.762,0,0,1,7650.683,7109q7.323,11.524,11.035,27.832a163.625,163.625,0,0,1,3.711,36.231,109.927,109.927,0,0,1-3.272,28.32,60.926,60.926,0,0,1-9.326,20.459,39.07,39.07,0,0,1-14.7,12.4,44.442,44.442,0,0,1-19.483,4.151,46.568,46.568,0,0,1-15.283-2.686,38.139,38.139,0,0,1-14.062-8.74A45.426,45.426,0,0,1,7579,7211.1q-4.005-9.814-4-24.072a63.988,63.988,0,0,1,3.467-21.875,49.248,49.248,0,0,1,9.326-16.162,39.926,39.926,0,0,1,13.574-10.059,39.356,39.356,0,0,1,16.309-3.467,30.073,30.073,0,0,1,5.957.537,26.971,26.971,0,0,1,4.59,1.319,21.007,21.007,0,0,1,3.418,1.709Q7633.1,7139.959,7634.276,7140.837Zm1.172,42.969v-4.346q0-3.27-.2-7.519t-.684-9.033a58.638,58.638,0,0,0-1.562-8.887,34.458,34.458,0,0,0-5.225-5.42,11.156,11.156,0,0,0-7.373-2.393q-7.617,0-11.181,9.961t-3.565,30.86a155.655,155.655,0,0,0,.83,16.8,69.619,69.619,0,0,0,2.539,13.086,23.033,23.033,0,0,0,4.395,8.5,8.275,8.275,0,0,0,6.4,3.028Q7635.447,7228.435,7635.448,7183.806Z" transform="translate(-6860.834 -6861.88)"/>
    </g>
  </g>
  <g>
    <g>
      <path class="cls-2" d="M6942.475,7001.041q0,7.521-3.955,10.937t-12.061,3.418q-8.2,0-12.109-3.418t-3.907-10.937V6883.462a9.775,9.775,0,0,0-.488-3.418,4.792,4.792,0,0,0-1.367-2,4.645,4.645,0,0,0-2.1-.976,13.784,13.784,0,0,0-2.685-.244,26.2,26.2,0,0,0-5.323.683,44.324,44.324,0,0,0-6.689,2.051,56.112,56.112,0,0,0-7.08,3.369,34.278,34.278,0,0,0-6.348,4.541,22.774,22.774,0,0,0-4.541,5.664,13.529,13.529,0,0,0-1.758,6.739,12.366,12.366,0,0,0,.831,4.98,7.829,7.829,0,0,0,1.9,2.783,4.979,4.979,0,0,0,2.2,1.172,8.68,8.68,0,0,0,1.611.244,8.5,8.5,0,0,0,4-.83,23.069,23.069,0,0,0,2.832-1.758q1.269-.927,2.393-1.757a4.237,4.237,0,0,1,2.588-.83,6.633,6.633,0,0,1,2.49.537,7.086,7.086,0,0,1,2.441,1.709,9.754,9.754,0,0,1,1.905,3.076,12.249,12.249,0,0,1,.781,4.638,14.107,14.107,0,0,1-1.514,6.739,15.009,15.009,0,0,1-3.906,4.736,16.186,16.186,0,0,1-5.469,2.832,21,21,0,0,1-6.1.928,21.241,21.241,0,0,1-8.447-1.611,18.656,18.656,0,0,1-6.4-4.444,19.076,19.076,0,0,1-4-6.64,23.8,23.8,0,0,1-1.367-8.106,30.646,30.646,0,0,1,2.441-12.353,34.8,34.8,0,0,1,6.69-10.108,45.25,45.25,0,0,1,9.961-7.861,65.629,65.629,0,0,1,12.353-5.615,83.012,83.012,0,0,1,13.867-3.37,94.2,94.2,0,0,1,14.454-1.123q8.005,0,12.451,1.514a16.583,16.583,0,0,1,6.543,3.662,8.478,8.478,0,0,1,2.49,4.492,24.748,24.748,0,0,1,.391,3.907Z" transform="translate(-6860.834 -6861.88)"/>
      <path class="cls-2" d="M7026.85,6965.2a136.856,136.856,0,0,0-1.123-19.678,41.421,41.421,0,0,0-2.979-11.231q-1.855-3.857-4.1-5.078a9.515,9.515,0,0,0-4.589-1.22,8.657,8.657,0,0,0-5.03,1.513,18.591,18.591,0,0,0-3.808,3.467,28.528,28.528,0,0,0-2.735,3.906,24.159,24.159,0,0,1-1.9,2.93v65.234a14.97,14.97,0,0,1-.391,3.077,7.23,7.23,0,0,1-1.9,3.418,11.781,11.781,0,0,1-4.492,2.734,23.829,23.829,0,0,1-8.154,1.123,22.048,22.048,0,0,1-8.155-1.221,12.8,12.8,0,0,1-4.541-2.881,7.364,7.364,0,0,1-1.953-3.418,13.659,13.659,0,0,1-.39-2.832v-75.39a9.083,9.083,0,0,0-1.319-4.932,4.835,4.835,0,0,0-4.443-2.1,6.281,6.281,0,0,0-2.832.585,15.242,15.242,0,0,0-2.539,1.661l-2.051-2.442a54.883,54.883,0,0,1,5.029-3.662,39.136,39.136,0,0,1,6.006-3.174,43.285,43.285,0,0,1,6.934-2.246,33.79,33.79,0,0,1,7.812-.879q6.348,0,9.864,2.1a14.013,14.013,0,0,1,5.175,5.029,15.71,15.71,0,0,1,2,6.1,51.172,51.172,0,0,1,.342,5.322,53.234,53.234,0,0,1,8.2-9.277,40.7,40.7,0,0,1,4.151-3.418,36.734,36.734,0,0,1,4.882-2.979,28.421,28.421,0,0,1,5.469-2.1,22.463,22.463,0,0,1,5.908-.782,26.191,26.191,0,0,1,11.768,2.539,21,21,0,0,1,8.643,8.5q3.515,5.958,5.371,15.772a134.386,134.386,0,0,1,1.855,24.365,105.191,105.191,0,0,1-2.539,24.61,70.44,70.44,0,0,1-6.641,17.773,46.15,46.15,0,0,1-9.277,11.963,47.95,47.95,0,0,1-10.449,7.275,42.382,42.382,0,0,1-10.108,3.662,47.4,47.4,0,0,1-8.349,1.123l-1.074-4a19.282,19.282,0,0,0,5.42-2.149,15.219,15.219,0,0,0,4.541-4.3,28.967,28.967,0,0,0,3.613-7.178,65.745,65.745,0,0,0,2.685-10.888,144.323,144.323,0,0,0,1.661-15.479Q7026.847,6977.115,7026.85,6965.2Z" transform="translate(-6860.834 -6861.88)"/>
      <path class="cls-2" d="M7070.8,6963.833a62.053,62.053,0,0,1,3.711-22.412,47.456,47.456,0,0,1,9.912-16.064,40.159,40.159,0,0,1,14.4-9.668,46.593,46.593,0,0,1,17.188-3.223,49.957,49.957,0,0,1,17.187,2.979,39.252,39.252,0,0,1,14.4,9.131,44.632,44.632,0,0,1,9.912,15.576q3.709,9.426,3.711,22.314a64.106,64.106,0,0,1-3.711,22.657,50.409,50.409,0,0,1-9.912,16.6,41.2,41.2,0,0,1-14.4,10.2,43.728,43.728,0,0,1-17.187,3.467h-.586a106.637,106.637,0,0,1,11.963,4.3q6.494,2.733,13.476,5.859t14.063,6.4q7.08,3.27,13.72,5.908a128.181,128.181,0,0,0,12.549,4.3,39.663,39.663,0,0,0,10.6,1.66,24.952,24.952,0,0,0,5.322-.488,12.329,12.329,0,0,0,3.662-1.368,7.43,7.43,0,0,0,2.3-2.05,12.7,12.7,0,0,0,1.416-2.637l2.93.586a35.682,35.682,0,0,1-2.3,10.107,24.479,24.479,0,0,1-4.883,7.813,21.359,21.359,0,0,1-7.373,5.078,24.738,24.738,0,0,1-9.668,1.807,42.749,42.749,0,0,1-13.769-2.539,149.672,149.672,0,0,1-15.381-6.3q-7.961-3.76-16.113-8.155t-15.918-8.154a151.669,151.669,0,0,0-14.844-6.3,38.2,38.2,0,0,0-12.744-2.539,8.442,8.442,0,0,0-8.2,4.981l-3.028-.977a27.338,27.338,0,0,1,1.465-4.687,22.841,22.841,0,0,1,3.613-6.055,23.9,23.9,0,0,1,6.3-5.371,20.692,20.692,0,0,1,9.424-2.735,41.523,41.523,0,0,1-12.988-5.81,41.076,41.076,0,0,1-10.547-10.3,49.97,49.97,0,0,1-7.08-14.746A65.587,65.587,0,0,1,7070.8,6963.833Zm60.059-.976q0-7.812-.538-15.088a67.738,67.738,0,0,0-2.1-12.939,22.841,22.841,0,0,0-4.492-9.034,9.73,9.73,0,0,0-7.715-3.369,9.5,9.5,0,0,0-7.715,3.565,24.671,24.671,0,0,0-4.492,9.375,68.437,68.437,0,0,0-2.051,13.232q-.49,7.422-.488,15.234t.488,15.284a69.5,69.5,0,0,0,2.051,13.33,24.663,24.663,0,0,0,4.492,9.424,9.494,9.494,0,0,0,7.715,3.564,9.352,9.352,0,0,0,7.715-3.711,26.148,26.148,0,0,0,4.492-9.766,76.585,76.585,0,0,0,2.1-13.671Q7130.852,6970.669,7130.854,6962.857Z" transform="translate(-6860.834 -6861.88)"/>
      <path class="cls-2" d="M7264.838,6996.841q0,.879.1,1.9a6.568,6.568,0,0,0,.488,1.953,3.58,3.58,0,0,0,1.172,1.513,3.688,3.688,0,0,0,2.246.586,4.829,4.829,0,0,0,3.32-1.318q1.466-1.318,2.734-2.686l2.344,2.051a57.428,57.428,0,0,1-3.662,4.541,31.869,31.869,0,0,1-5.322,4.737,30.765,30.765,0,0,1-7.129,3.759,25.553,25.553,0,0,1-9.082,1.514,22.426,22.426,0,0,1-7.471-1.123,16.5,16.5,0,0,1-5.371-3.027,11.933,11.933,0,0,1-3.271-4.493,14.225,14.225,0,0,1-1.075-5.517v-4.395a75.463,75.463,0,0,1-10.253,9.278q-2.345,1.758-4.981,3.418a49.145,49.145,0,0,1-5.469,2.978,34.058,34.058,0,0,1-5.859,2.1,24.192,24.192,0,0,1-6.055.781,21.962,21.962,0,0,1-10.01-2.1,18.623,18.623,0,0,1-6.689-5.517,22.879,22.879,0,0,1-3.711-7.715,32.537,32.537,0,0,1-1.172-8.594v-60.449q0-.879-.1-1.9a6.662,6.662,0,0,0-.489-1.953,3.6,3.6,0,0,0-1.172-1.514,3.692,3.692,0,0,0-2.246-.586,4.889,4.889,0,0,0-3.271,1.318,26.176,26.176,0,0,0-2.686,2.686l-2.441-2.051a57.428,57.428,0,0,1,3.662-4.541,31.825,31.825,0,0,1,5.322-4.736,30.565,30.565,0,0,1,7.178-3.76,25.652,25.652,0,0,1,9.033-1.514,22.9,22.9,0,0,1,7.52,1.123,15.862,15.862,0,0,1,5.371,3.028,12.2,12.2,0,0,1,3.222,4.492,14.247,14.247,0,0,1,1.075,5.517v65.235a9.347,9.347,0,0,0,.439,2.783,9.106,9.106,0,0,0,1.27,2.588,6.535,6.535,0,0,0,2.1,1.9,5.952,5.952,0,0,0,3.028.733,12.246,12.246,0,0,0,5.664-1.465,27.128,27.128,0,0,0,5.175-3.467,38.9,38.9,0,0,0,4.053-3.955q1.709-1.953,2.49-2.93v-57.031q0-.879-.1-1.9a6.662,6.662,0,0,0-.489-1.953,3.6,3.6,0,0,0-1.171-1.514,3.694,3.694,0,0,0-2.246-.586,4.892,4.892,0,0,0-3.272,1.318,26.176,26.176,0,0,0-2.686,2.686l-2.441-2.051a57.657,57.657,0,0,1,3.662-4.541,31.825,31.825,0,0,1,5.322-4.736,30.565,30.565,0,0,1,7.178-3.76,25.652,25.652,0,0,1,9.033-1.514,22.9,22.9,0,0,1,7.52,1.123,15.862,15.862,0,0,1,5.371,3.028,12.2,12.2,0,0,1,3.223,4.492,14.265,14.265,0,0,1,1.074,5.517Z" transform="translate(-6860.834 -6861.88)"/>
      <path class="cls-2" d="M7321.674,7005.044a13.37,13.37,0,0,1-.44,3.077,7.306,7.306,0,0,1-2.05,3.418,12.765,12.765,0,0,1-4.639,2.734,24.267,24.267,0,0,1-8.2,1.123,21.65,21.65,0,0,1-8.106-1.221,11.808,11.808,0,0,1-4.394-2.881,7.3,7.3,0,0,1-1.807-3.418,15.551,15.551,0,0,1-.342-2.832v-75.39a9.082,9.082,0,0,0-1.318-4.932,4.835,4.835,0,0,0-4.443-2.1,6.281,6.281,0,0,0-2.832.585,15.2,15.2,0,0,0-2.539,1.661l-2.051-2.442a54.883,54.883,0,0,1,5.029-3.662,39.089,39.089,0,0,1,6.006-3.174,43.253,43.253,0,0,1,6.934-2.246,33.79,33.79,0,0,1,7.812-.879q6.346,0,9.863,1.709a12.67,12.67,0,0,1,5.176,4.2,12.1,12.1,0,0,1,2,5.322,42.182,42.182,0,0,1,.342,4.98ZM7288.666,6890.2a11.712,11.712,0,0,1,1.221-5.225,13.32,13.32,0,0,1,3.418-4.346,17.053,17.053,0,0,1,5.078-2.929,17.891,17.891,0,0,1,6.3-1.075,17.614,17.614,0,0,1,6.2,1.075,16.421,16.421,0,0,1,5.029,2.929,13.633,13.633,0,0,1,3.369,4.346,11.893,11.893,0,0,1,0,10.5,13.245,13.245,0,0,1-3.369,4.248,16.9,16.9,0,0,1-5.029,2.881,17.591,17.591,0,0,1-6.2,1.074,17.868,17.868,0,0,1-6.3-1.074,17.563,17.563,0,0,1-5.078-2.881,12.95,12.95,0,0,1-3.418-4.248A11.6,11.6,0,0,1,7288.666,6890.2Z" transform="translate(-6860.834 -6861.88)"/>
      <path class="cls-2" d="M7377.631,6920.279a15.031,15.031,0,0,0-4.248.586,9.662,9.662,0,0,0-3.565,1.9,9.012,9.012,0,0,0-2.441,3.32,11.721,11.721,0,0,0-.879,4.737,12.656,12.656,0,0,0,2.783,7.568,65.65,65.65,0,0,0,6.934,7.813q4.149,4.053,8.984,8.4a99.525,99.525,0,0,1,8.985,9.18,52,52,0,0,1,6.933,10.3,25.477,25.477,0,0,1,2.783,11.719,30.907,30.907,0,0,1-2.392,12.5,25.522,25.522,0,0,1-6.836,9.277,30.418,30.418,0,0,1-10.742,5.811,46.146,46.146,0,0,1-14.014,2,36.957,36.957,0,0,1-12.207-1.9,44.132,44.132,0,0,1-9.717-4.688,42.4,42.4,0,0,1-7.275-5.908,39.41,39.41,0,0,1-4.688-5.664l3.418-2.441a33.1,33.1,0,0,0,3.223,3.173,31.611,31.611,0,0,0,4.346,3.174,25.329,25.329,0,0,0,5.127,2.393,17.19,17.19,0,0,0,5.566.927q7.03,0,11.523-3.369t4.493-10.009a14.605,14.605,0,0,0-2.442-7.666,60.321,60.321,0,0,0-6.152-8.155q-3.713-4.2-8.008-8.691a118.134,118.134,0,0,1-8.008-9.277,54.878,54.878,0,0,1-6.152-9.864,24.051,24.051,0,0,1-2.442-10.547,22.192,22.192,0,0,1,2.491-10.742,22.708,22.708,0,0,1,6.64-7.617,29.744,29.744,0,0,1,9.473-4.541,39.966,39.966,0,0,1,10.986-1.514,56.011,56.011,0,0,1,11.914,1.172,29.208,29.208,0,0,1,9.229,3.565,17.259,17.259,0,0,1,5.957,6,16.428,16.428,0,0,1,2.1,8.4,9.362,9.362,0,0,1-2.442,6.445,8.69,8.69,0,0,1-6.836,2.735q-4.2,0-6.4-1.807a6.042,6.042,0,0,1-2.2-4.932,4.724,4.724,0,0,1,1.026-3.222,9.04,9.04,0,0,1,2.3-1.9q1.267-.732,2.3-1.269a1.6,1.6,0,0,0,1.025-1.416q0-2.733-2.93-4.346A15.512,15.512,0,0,0,7377.631,6920.279Z" transform="translate(-6860.834 -6861.88)"/>
      <path class="cls-2" d="M7453.217,7005.044a13.37,13.37,0,0,1-.44,3.077,7.306,7.306,0,0,1-2.05,3.418,12.773,12.773,0,0,1-4.639,2.734,24.267,24.267,0,0,1-8.2,1.123,21.65,21.65,0,0,1-8.106-1.221,11.808,11.808,0,0,1-4.394-2.881,7.3,7.3,0,0,1-1.807-3.418,15.551,15.551,0,0,1-.342-2.832v-75.39a9.082,9.082,0,0,0-1.318-4.932,4.835,4.835,0,0,0-4.443-2.1,6.281,6.281,0,0,0-2.832.585,15.2,15.2,0,0,0-2.539,1.661l-2.051-2.442a54.883,54.883,0,0,1,5.029-3.662,39.089,39.089,0,0,1,6.006-3.174,43.273,43.273,0,0,1,6.933-2.246,33.805,33.805,0,0,1,7.813-.879q6.346,0,9.863,1.709a12.67,12.67,0,0,1,5.176,4.2,12.127,12.127,0,0,1,2,5.322,42.182,42.182,0,0,1,.342,4.98ZM7420.209,6890.2a11.712,11.712,0,0,1,1.221-5.225,13.32,13.32,0,0,1,3.418-4.346,17.053,17.053,0,0,1,5.078-2.929,17.891,17.891,0,0,1,6.3-1.075,17.614,17.614,0,0,1,6.2,1.075,16.421,16.421,0,0,1,5.029,2.929,13.633,13.633,0,0,1,3.369,4.346,11.893,11.893,0,0,1,0,10.5,13.245,13.245,0,0,1-3.369,4.248,16.9,16.9,0,0,1-5.029,2.881,17.591,17.591,0,0,1-6.2,1.074,17.868,17.868,0,0,1-6.3-1.074,17.563,17.563,0,0,1-5.078-2.881,12.95,12.95,0,0,1-3.418-4.248A11.6,11.6,0,0,1,7420.209,6890.2Z" transform="translate(-6860.834 -6861.88)"/>
      <path class="cls-2" d="M7509.467,6920.865v72.168q0,5.177,1.953,7.177a7.155,7.155,0,0,0,5.371,2,7.868,7.868,0,0,0,4.688-1.464,17.092,17.092,0,0,0,3.515-3.321,20.66,20.66,0,0,0,3.027-4.785l3.028,1.367q-1.465,3.128-3.467,6.836a27.074,27.074,0,0,1-13.672,12.207,32.355,32.355,0,0,1-12.646,2.149,26.865,26.865,0,0,1-8.252-1.27,19.363,19.363,0,0,1-7.032-4,20.042,20.042,0,0,1-4.931-6.836,23.805,23.805,0,0,1-1.856-9.863v-72.363h-10.937v-7.032a29.424,29.424,0,0,0,7.617-1.416,37.966,37.966,0,0,0,10.01-4.736,39.766,39.766,0,0,0,9.521-8.887,33.961,33.961,0,0,0,6.25-13.769h7.813v28.808h15.918q7.812,0,7.812-2.636a1.306,1.306,0,0,0-.976-1.319q-.978-.34-2.2-.878a7.155,7.155,0,0,1-2.2-1.514,4.435,4.435,0,0,1-.976-3.223,5.531,5.531,0,0,1,1.709-4.3A6.332,6.332,0,0,1,7533,6898.4a6.234,6.234,0,0,1,3.076.732,6.676,6.676,0,0,1,2.2,1.953,8.814,8.814,0,0,1,1.319,2.784,11.5,11.5,0,0,1,.439,3.125q0,6.348-3.662,10.107t-11.767,3.76Z" transform="translate(-6860.834 -6861.88)"/>
      <path class="cls-2" d="M7537.006,6963.833a62.053,62.053,0,0,1,3.711-22.412,47.456,47.456,0,0,1,9.912-16.064,40.15,40.15,0,0,1,14.4-9.668,46.593,46.593,0,0,1,17.188-3.223,49.961,49.961,0,0,1,17.187,2.979,39.244,39.244,0,0,1,14.4,9.131,44.632,44.632,0,0,1,9.912,15.576q3.709,9.426,3.711,22.314a64.106,64.106,0,0,1-3.711,22.657,50.409,50.409,0,0,1-9.912,16.6,41.188,41.188,0,0,1-14.4,10.2,43.731,43.731,0,0,1-17.187,3.467,45.991,45.991,0,0,1-17.188-3.271,40.709,40.709,0,0,1-14.4-9.717,47.351,47.351,0,0,1-9.912-16.114A62.443,62.443,0,0,1,7537.006,6963.833Zm60.058-.976q0-7.812-.537-15.088a67.66,67.66,0,0,0-2.1-12.939,22.841,22.841,0,0,0-4.492-9.034,9.73,9.73,0,0,0-7.715-3.369,9.5,9.5,0,0,0-7.715,3.565,24.685,24.685,0,0,0-4.492,9.375,68.437,68.437,0,0,0-2.051,13.232q-.489,7.422-.488,15.234t.488,15.284a69.5,69.5,0,0,0,2.051,13.33,24.678,24.678,0,0,0,4.492,9.424,9.494,9.494,0,0,0,7.715,3.564,9.352,9.352,0,0,0,7.715-3.711,26.148,26.148,0,0,0,4.492-9.766,76.5,76.5,0,0,0,2.1-13.671Q7597.064,6970.669,7597.064,6962.857Z" transform="translate(-6860.834 -6861.88)"/>
      <path class="cls-2" d="M7676.85,6933.072a80.53,80.53,0,0,1,7.91-10.254,52.822,52.822,0,0,1,3.808-3.809,36.86,36.86,0,0,1,4.248-3.32,22.28,22.28,0,0,1,4.541-2.344,13.271,13.271,0,0,1,4.688-.879,10.263,10.263,0,0,1,7.812,2.979q2.832,2.98,2.832,8.349a37.149,37.149,0,0,1-.537,6.4,47.425,47.425,0,0,1-2.1,7.471h-2.735a9.033,9.033,0,0,0-2.734-5.03q-2.15-2-6.25-2a16.552,16.552,0,0,0-5.957,1.123,37.02,37.02,0,0,0-5.713,2.784,50.443,50.443,0,0,0-5.273,3.613q-2.492,1.955-4.541,3.711v63.379a14.3,14.3,0,0,1-.391,3.027,6.959,6.959,0,0,1-1.9,3.32,12.157,12.157,0,0,1-4.492,2.686,23.835,23.835,0,0,1-8.155,1.123,22.042,22.042,0,0,1-8.154-1.221,12.8,12.8,0,0,1-4.541-2.881,7.364,7.364,0,0,1-1.953-3.418,13.672,13.672,0,0,1-.391-2.832v-75.39a9.082,9.082,0,0,0-1.318-4.932,4.837,4.837,0,0,0-4.444-2.1,6.287,6.287,0,0,0-2.832.585,15.242,15.242,0,0,0-2.539,1.661l-2.05-2.442a54.746,54.746,0,0,1,5.029-3.662,39.043,39.043,0,0,1,6.006-3.174,43.273,43.273,0,0,1,6.933-2.246,33.8,33.8,0,0,1,7.813-.879,20.437,20.437,0,0,1,7.178,1.123,14.353,14.353,0,0,1,4.882,2.93,13.762,13.762,0,0,1,2.979,4.053,22.314,22.314,0,0,1,1.611,4.541,24.252,24.252,0,0,1,.635,4.394Q7676.848,6931.609,7676.85,6933.072Z" transform="translate(-6860.834 -6861.88)"/>
      <path class="cls-2" d="M7756.244,7005.044a13.362,13.362,0,0,1-.439,3.077,7.308,7.308,0,0,1-2.051,3.418,12.756,12.756,0,0,1-4.639,2.734,24.263,24.263,0,0,1-8.2,1.123,21.644,21.644,0,0,1-8.105-1.221,11.821,11.821,0,0,1-4.395-2.881,7.307,7.307,0,0,1-1.807-3.418,15.535,15.535,0,0,1-.341-2.832v-75.39a9.083,9.083,0,0,0-1.319-4.932,4.835,4.835,0,0,0-4.443-2.1,6.284,6.284,0,0,0-2.832.585,15.242,15.242,0,0,0-2.539,1.661l-2.051-2.442a54.883,54.883,0,0,1,5.029-3.662,39.136,39.136,0,0,1,6.006-3.174,43.285,43.285,0,0,1,6.934-2.246,33.79,33.79,0,0,1,7.812-.879q6.348,0,9.864,1.709a12.673,12.673,0,0,1,5.175,4.2,12.1,12.1,0,0,1,2,5.322,42.182,42.182,0,0,1,.342,4.98ZM7723.236,6890.2a11.725,11.725,0,0,1,1.221-5.225,13.333,13.333,0,0,1,3.418-4.346,17.053,17.053,0,0,1,5.078-2.929,17.9,17.9,0,0,1,6.3-1.075,17.614,17.614,0,0,1,6.2,1.075,16.409,16.409,0,0,1,5.029,2.929,13.65,13.65,0,0,1,3.37,4.346,11.9,11.9,0,0,1,0,10.5,13.262,13.262,0,0,1-3.37,4.248,16.884,16.884,0,0,1-5.029,2.881,17.591,17.591,0,0,1-6.2,1.074,17.872,17.872,0,0,1-6.3-1.074,17.563,17.563,0,0,1-5.078-2.881,12.963,12.963,0,0,1-3.418-4.248A11.615,11.615,0,0,1,7723.236,6890.2Z" transform="translate(-6860.834 -6861.88)"/>
      <path class="cls-2" d="M7809.271,6920.474a23.105,23.105,0,0,0-6.152.781,21.262,21.262,0,0,0-4.883,1.953,11.622,11.622,0,0,0-3.222,2.588,4.314,4.314,0,0,0-1.172,2.686,2.167,2.167,0,0,0,1.513,2.1q1.514.636,3.37,1.464a11.265,11.265,0,0,1,3.369,2.344,6.318,6.318,0,0,1,1.513,4.639,8.5,8.5,0,0,1-.83,3.76,10.18,10.18,0,0,1-5.566,5.078,10.933,10.933,0,0,1-3.955.732,11.367,11.367,0,0,1-8.838-3.711q-3.369-3.709-3.369-9.863a16.743,16.743,0,0,1,3.125-10.2,24.423,24.423,0,0,1,8.154-6.983,41.3,41.3,0,0,1,11.377-4.052,63.245,63.245,0,0,1,27.246.341,36.948,36.948,0,0,1,12.256,5.274,27.31,27.31,0,0,1,8.5,9.18,26.81,26.81,0,0,1,3.174,13.476v55.176q0,.879.1,1.953a6.1,6.1,0,0,0,.488,1.953,3.334,3.334,0,0,0,3.418,2.051,4.889,4.889,0,0,0,3.271-1.318,25.978,25.978,0,0,0,2.686-2.686l2.441,2.051q-1.464,2.051-3.515,4.492a28.151,28.151,0,0,1-11.817,8.2,25.174,25.174,0,0,1-8.886,1.465,17.518,17.518,0,0,1-10.938-3.662q-4.785-3.663-6.25-11.279a41.485,41.485,0,0,1-6.494,7.031,35.156,35.156,0,0,1-6.885,4.59,30.392,30.392,0,0,1-7.08,2.539,33.49,33.49,0,0,1-7.178.781,28.521,28.521,0,0,1-9.082-1.465,21.66,21.66,0,0,1-7.861-4.639,22.736,22.736,0,0,1-5.566-8.251,32.464,32.464,0,0,1-2.1-12.4q0-8.884,3.516-14.551a31.393,31.393,0,0,1,9.228-9.521,62.287,62.287,0,0,1,12.988-6.592q7.275-2.733,14.893-5.762a15.907,15.907,0,0,0,8.252-6.689,17.928,17.928,0,0,0,2.588-9.131q0-7.226-4.248-11.572T7809.271,6920.474Zm15.528,42.774a4.5,4.5,0,0,0-1.563-3.711,6.15,6.15,0,0,0-4-1.27,14.158,14.158,0,0,0-6.494,1.563,16.065,16.065,0,0,0-5.42,4.589,23.289,23.289,0,0,0-3.711,7.471,35.1,35.1,0,0,0-1.367,10.3,44.045,44.045,0,0,0,.83,9.375,18.353,18.353,0,0,0,2.246,5.908,8.118,8.118,0,0,0,3.272,3.076,9.011,9.011,0,0,0,3.906.879,9.3,9.3,0,0,0,4.785-1.318,14.343,14.343,0,0,0,3.907-3.369,16.872,16.872,0,0,0,2.636-4.59,14.055,14.055,0,0,0,.977-5.078Z" transform="translate(-6860.834 -6861.88)"/>
      <path class="cls-2" d="M7910.639,7005.24a12.775,12.775,0,0,1-.44,3.027,7.026,7.026,0,0,1-2.051,3.32,13.147,13.147,0,0,1-4.687,2.686,24.71,24.71,0,0,1-8.252,1.123,21.644,21.644,0,0,1-8.1-1.221,11.311,11.311,0,0,1-4.346-2.881,7.48,7.48,0,0,1-1.758-3.418,15.462,15.462,0,0,1-.342-2.832V6879.068a9.082,9.082,0,0,0-1.318-4.932,4.837,4.837,0,0,0-4.444-2.1,7.12,7.12,0,0,0-2.88.537,12.228,12.228,0,0,0-2.588,1.611l-1.953-2.344a58.6,58.6,0,0,1,4.98-3.662,36.217,36.217,0,0,1,6.006-3.174,44.987,44.987,0,0,1,6.982-2.246,33.8,33.8,0,0,1,7.813-.879q6.346,0,9.863,1.709a12.67,12.67,0,0,1,5.176,4.2,12.09,12.09,0,0,1,2,5.273,41.184,41.184,0,0,1,.342,4.932Z" transform="translate(-6860.834 -6861.88)"/>
    </g>
    <g>
      <path class="cls-2" d="M7184.037,7250.993a21.985,21.985,0,0,0,7.714-1.416,17.278,17.278,0,0,0,6.788-4.687,24.731,24.731,0,0,0,4.834-8.545,39.16,39.16,0,0,0,1.856-12.891,33.848,33.848,0,0,0-4.053-15.918,91.012,91.012,0,0,0-10.157-15.185q-6.1-7.471-13.184-14.844t-13.183-15.039a88.925,88.925,0,0,1-10.156-15.821,37.8,37.8,0,0,1-4.053-17.041,38.284,38.284,0,0,1,3.271-16.064,36.455,36.455,0,0,1,8.887-12.207,40.012,40.012,0,0,1,13.086-7.764,46.112,46.112,0,0,1,15.967-2.734,62.417,62.417,0,0,1,16.162,1.9,40.78,40.78,0,0,1,12.012,5.176,23.093,23.093,0,0,1,7.471,7.715,18.71,18.71,0,0,1,2.539,9.424,18.308,18.308,0,0,1-.684,4.834,14.25,14.25,0,0,1-2.148,4.541,12.465,12.465,0,0,1-3.711,3.418,9.946,9.946,0,0,1-5.274,1.367q-3.613,0-5.322-2.2a14.663,14.663,0,0,1-2.539-5.42,71.5,71.5,0,0,1-1.416-7.08,32.762,32.762,0,0,0-1.855-7.081,13.686,13.686,0,0,0-3.809-5.419q-2.541-2.2-7.422-2.2a12.561,12.561,0,0,0-5.225,1.172,13.822,13.822,0,0,0-4.687,3.565,17.918,17.918,0,0,0-3.37,6.1,27.238,27.238,0,0,0-1.269,8.789,28.172,28.172,0,0,0,2.441,11.426,57.065,57.065,0,0,0,6.446,10.986,116.79,116.79,0,0,0,9.131,10.84q5.127,5.419,10.449,10.938t10.449,11.328a98.956,98.956,0,0,1,9.131,12.06,64.353,64.353,0,0,1,6.446,13.086,42.4,42.4,0,0,1,2.441,14.356,44.03,44.03,0,0,1-4.248,19.677,42.847,42.847,0,0,1-11.523,14.551,51.77,51.77,0,0,1-17.041,9.033,67.877,67.877,0,0,1-20.8,3.125,57.054,57.054,0,0,1-17.627-2.49,41.989,41.989,0,0,1-12.939-6.592,28.157,28.157,0,0,1-7.959-9.326,23.308,23.308,0,0,1-2.686-10.791,19.144,19.144,0,0,1,.733-5.029,18.139,18.139,0,0,1,2.148-4.932,13.07,13.07,0,0,1,3.565-3.759,8.423,8.423,0,0,1,4.98-1.514,7.285,7.285,0,0,1,4.736,1.465,10.211,10.211,0,0,1,2.881,3.906,29.512,29.512,0,0,1,1.758,5.566q.682,3.126,1.465,6.348a54.858,54.858,0,0,0,1.953,6.348,18.893,18.893,0,0,0,3.223,5.566,14.7,14.7,0,0,0,5.273,3.906A19.608,19.608,0,0,0,7184.037,7250.993Z" transform="translate(-6860.834 -6861.88)"/>
      <path class="cls-2" d="M7250.248,7186.833a62.032,62.032,0,0,1,3.711-22.412,47.451,47.451,0,0,1,9.912-16.065,40.184,40.184,0,0,1,14.4-9.668,46.592,46.592,0,0,1,17.188-3.222,49.98,49.98,0,0,1,17.187,2.978,39.265,39.265,0,0,1,14.405,9.131,44.656,44.656,0,0,1,9.912,15.576q3.709,9.426,3.711,22.315a64.1,64.1,0,0,1-3.711,22.656,50.441,50.441,0,0,1-9.912,16.6,41.21,41.21,0,0,1-14.405,10.2,43.728,43.728,0,0,1-17.187,3.467h-.586a106.617,106.617,0,0,1,11.963,4.3q6.493,2.735,13.476,5.86t14.063,6.4q7.08,3.271,13.721,5.908a127.813,127.813,0,0,0,12.548,4.3,39.623,39.623,0,0,0,10.6,1.66,24.946,24.946,0,0,0,5.322-.488,12.319,12.319,0,0,0,3.663-1.367,7.452,7.452,0,0,0,2.294-2.051,12.737,12.737,0,0,0,1.416-2.636l2.93.585a35.723,35.723,0,0,1-2.3,10.108,24.492,24.492,0,0,1-4.883,7.812,21.336,21.336,0,0,1-7.373,5.078,24.727,24.727,0,0,1-9.668,1.807,42.744,42.744,0,0,1-13.769-2.539,149.314,149.314,0,0,1-15.381-6.3q-7.962-3.761-16.113-8.154t-15.918-8.154a151.425,151.425,0,0,0-14.844-6.3,38.208,38.208,0,0,0-12.744-2.539,8.443,8.443,0,0,0-8.2,4.98l-3.028-.976a27.37,27.37,0,0,1,1.465-4.688,22.878,22.878,0,0,1,3.614-6.055,23.9,23.9,0,0,1,6.3-5.371,20.7,20.7,0,0,1,9.424-2.734,41.515,41.515,0,0,1-12.988-5.811,41.056,41.056,0,0,1-10.547-10.3,49.982,49.982,0,0,1-7.08-14.746A65.587,65.587,0,0,1,7250.248,7186.833Zm60.059-.977q0-7.812-.537-15.087a67.811,67.811,0,0,0-2.1-12.94,22.836,22.836,0,0,0-4.492-9.033,9.73,9.73,0,0,0-7.715-3.369,9.5,9.5,0,0,0-7.715,3.564,24.671,24.671,0,0,0-4.492,9.375,68.436,68.436,0,0,0-2.051,13.233q-.49,7.422-.488,15.234t.488,15.283a69.49,69.49,0,0,0,2.051,13.33,24.656,24.656,0,0,0,4.492,9.424,9.495,9.495,0,0,0,7.715,3.565,9.355,9.355,0,0,0,7.715-3.711,26.155,26.155,0,0,0,4.492-9.766,76.684,76.684,0,0,0,2.1-13.672Q7310.3,7193.669,7310.307,7185.856Z" transform="translate(-6860.834 -6861.88)"/>
      <path class="cls-2" d="M7444.291,7219.841q0,.879.1,1.9a6.56,6.56,0,0,0,.488,1.953,3.589,3.589,0,0,0,1.172,1.514,3.688,3.688,0,0,0,2.246.586,4.83,4.83,0,0,0,3.32-1.319q1.466-1.317,2.735-2.685l2.343,2.051a57.428,57.428,0,0,1-3.662,4.541,31.821,31.821,0,0,1-5.322,4.736,30.805,30.805,0,0,1-7.129,3.76,25.553,25.553,0,0,1-9.082,1.514,22.4,22.4,0,0,1-7.471-1.124,16.484,16.484,0,0,1-5.371-3.027,11.933,11.933,0,0,1-3.271-4.492,14.233,14.233,0,0,1-1.074-5.518v-4.394a75.586,75.586,0,0,1-10.254,9.277q-2.345,1.758-4.981,3.418a49.152,49.152,0,0,1-5.469,2.979,34.031,34.031,0,0,1-5.859,2.1,24.153,24.153,0,0,1-6.055.782,21.968,21.968,0,0,1-10.009-2.1,18.631,18.631,0,0,1-6.69-5.518,22.87,22.87,0,0,1-3.711-7.715,32.535,32.535,0,0,1-1.172-8.593v-60.449c0-.586-.034-1.221-.1-1.9a6.7,6.7,0,0,0-.489-1.953,3.609,3.609,0,0,0-1.171-1.514,3.7,3.7,0,0,0-2.247-.586,4.892,4.892,0,0,0-3.271,1.319,26.07,26.07,0,0,0-2.686,2.685l-2.441-2.05a57.474,57.474,0,0,1,3.662-4.541,31.745,31.745,0,0,1,5.322-4.737,30.565,30.565,0,0,1,7.178-3.76,25.671,25.671,0,0,1,9.033-1.513,22.871,22.871,0,0,1,7.52,1.123,15.878,15.878,0,0,1,5.371,3.027,12.23,12.23,0,0,1,3.223,4.492,14.274,14.274,0,0,1,1.074,5.518v65.234a9.358,9.358,0,0,0,.439,2.784,9.1,9.1,0,0,0,1.27,2.587,6.538,6.538,0,0,0,2.1,1.905,5.959,5.959,0,0,0,3.028.732,12.234,12.234,0,0,0,5.664-1.465,27.162,27.162,0,0,0,5.176-3.466,39.09,39.09,0,0,0,4.052-3.956q1.709-1.951,2.491-2.929v-57.031c0-.586-.034-1.221-.1-1.9a6.7,6.7,0,0,0-.488-1.953,3.619,3.619,0,0,0-1.172-1.514,3.7,3.7,0,0,0-2.246-.586,4.893,4.893,0,0,0-3.272,1.319,26.057,26.057,0,0,0-2.685,2.685l-2.442-2.05a57.474,57.474,0,0,1,3.662-4.541,31.793,31.793,0,0,1,5.323-4.737,30.557,30.557,0,0,1,7.177-3.76,25.677,25.677,0,0,1,9.034-1.513,22.865,22.865,0,0,1,7.519,1.123,15.868,15.868,0,0,1,5.371,3.027,12.207,12.207,0,0,1,3.223,4.492,14.255,14.255,0,0,1,1.074,5.518Z" transform="translate(-6860.834 -6861.88)"/>
      <path class="cls-2" d="M7498.393,7143.474a23.067,23.067,0,0,0-6.153.781,21.235,21.235,0,0,0-4.883,1.953,11.587,11.587,0,0,0-3.222,2.588,4.315,4.315,0,0,0-1.172,2.685,2.166,2.166,0,0,0,1.514,2.1q1.512.636,3.369,1.465a11.265,11.265,0,0,1,3.369,2.344,6.314,6.314,0,0,1,1.514,4.638,8.493,8.493,0,0,1-.831,3.76,10.18,10.18,0,0,1-5.566,5.078,10.93,10.93,0,0,1-3.955.733,11.37,11.37,0,0,1-8.838-3.711q-3.369-3.711-3.369-9.864a16.743,16.743,0,0,1,3.125-10.2,24.409,24.409,0,0,1,8.154-6.982,41.27,41.27,0,0,1,11.377-4.053,63.268,63.268,0,0,1,27.246.342,36.926,36.926,0,0,1,12.256,5.273,27.319,27.319,0,0,1,8.5,9.18,26.811,26.811,0,0,1,3.174,13.477v55.175q0,.879.1,1.954a6.1,6.1,0,0,0,.488,1.953,3.656,3.656,0,0,0,1.172,1.465,3.7,3.7,0,0,0,2.246.585,4.889,4.889,0,0,0,3.271-1.318,26.07,26.07,0,0,0,2.686-2.685l2.441,2.05q-1.464,2.052-3.515,4.493a28.175,28.175,0,0,1-11.817,8.2,25.2,25.2,0,0,1-8.886,1.465,17.512,17.512,0,0,1-10.938-3.663q-4.785-3.662-6.25-11.279a41.409,41.409,0,0,1-6.494,7.031,35.156,35.156,0,0,1-6.885,4.59,30.347,30.347,0,0,1-7.08,2.539,33.428,33.428,0,0,1-7.178.782,28.549,28.549,0,0,1-9.082-1.465,21.688,21.688,0,0,1-7.861-4.639,22.753,22.753,0,0,1-5.566-8.252,32.459,32.459,0,0,1-2.1-12.4q0-8.886,3.516-14.551a31.385,31.385,0,0,1,9.228-9.522,62.285,62.285,0,0,1,12.988-6.591q7.275-2.735,14.893-5.762a15.909,15.909,0,0,0,8.252-6.69,17.922,17.922,0,0,0,2.588-9.13q0-7.227-4.248-11.573T7498.393,7143.474Zm15.527,42.773a4.506,4.506,0,0,0-1.563-3.711,6.148,6.148,0,0,0-4-1.269,14.158,14.158,0,0,0-6.495,1.562,16.057,16.057,0,0,0-5.42,4.59,23.267,23.267,0,0,0-3.71,7.471,35.053,35.053,0,0,0-1.368,10.3,44.032,44.032,0,0,0,.83,9.375,18.336,18.336,0,0,0,2.247,5.909,8.116,8.116,0,0,0,3.271,3.076,9.011,9.011,0,0,0,3.906.879,9.3,9.3,0,0,0,4.785-1.319,14.343,14.343,0,0,0,3.907-3.369,16.857,16.857,0,0,0,2.636-4.59,14.051,14.051,0,0,0,.977-5.078Z" transform="translate(-6860.834 -6861.88)"/>
      <path class="cls-2" d="M7622.611,7140.837a101.622,101.622,0,0,0-5.175-18.213,61.546,61.546,0,0,0-7.959-14.6,36.884,36.884,0,0,0-10.547-9.668,24.5,24.5,0,0,0-12.744-3.515,24.057,24.057,0,0,0-7.081.976,28.242,28.242,0,0,0-9.375,4.834q-1.514,1.223-2.2,1.807l-2.539-3.418a32.515,32.515,0,0,1,5.713-5.664,37.456,37.456,0,0,1,7.373-4.492,45.451,45.451,0,0,1,8.447-2.93,37.511,37.511,0,0,1,8.838-1.074q14.453,0,25.391,6.3A52.753,52.753,0,0,1,7639.018,7109q7.323,11.524,11.035,27.832a163.61,163.61,0,0,1,3.711,36.23,109.935,109.935,0,0,1-3.272,28.321,60.926,60.926,0,0,1-9.326,20.459,39.077,39.077,0,0,1-14.7,12.4,44.442,44.442,0,0,1-19.483,4.151,46.568,46.568,0,0,1-15.283-2.686,38.139,38.139,0,0,1-14.062-8.74,45.426,45.426,0,0,1-10.3-15.869q-4.005-9.814-4-24.073a63.988,63.988,0,0,1,3.467-21.875,49.259,49.259,0,0,1,9.326-16.162,39.923,39.923,0,0,1,13.574-10.058,39.341,39.341,0,0,1,16.309-3.467,30.073,30.073,0,0,1,5.957.537,26.975,26.975,0,0,1,4.59,1.318,21.088,21.088,0,0,1,3.418,1.709Q7621.439,7139.959,7622.611,7140.837Zm1.172,42.969v-4.346q0-3.271-.2-7.52t-.684-9.033a58.647,58.647,0,0,0-1.562-8.886,34.415,34.415,0,0,0-5.225-5.42,11.156,11.156,0,0,0-7.373-2.393q-7.617,0-11.181,9.961T7594,7187.028a155.688,155.688,0,0,0,.83,16.8,69.619,69.619,0,0,0,2.539,13.086,23.033,23.033,0,0,0,4.395,8.5,8.275,8.275,0,0,0,6.4,3.028Q7623.782,7228.435,7623.783,7183.806Z" transform="translate(-6860.834 -6861.88)"/>
    </g>
  </g>
</svg>
