<?xml version="1.0" encoding="utf-8"?>
<!-- Generator: Adobe Illustrator 24.0.2, SVG Export Plug-In . SVG Version: 6.00 Build 0)  -->
<svg version="1.1" id="Layer_1" xmlns="http://www.w3.org/2000/svg" xmlns:xlink="http://www.w3.org/1999/xlink" x="0px" y="0px"
	 viewBox="0 0 1280 1271" style="enable-background:new 0 0 1280 1271;" xml:space="preserve">
<style type="text/css">
	.st0{fill:none;}
	.st1{fill:#878787;}
	.st2{font-family:'BerkshireSwash-Regular';}
	.st3{font-size:1061.3718px;}
	.st4{fill:#B5B5B5;}
	.st5{font-size:10.6137px;}
</style>
<g transform="translate(0.000000,1271.000000) scale(0.100000,-0.100000)">
	<path d="M8135,11540c-177-25-405-114-541-212c-103-74-282-274-400-448c-104-153-127-192-160-277c-19-49-47-113-64-143
		c-16-31-35-87-44-126c-9-46-42-128-91-230c-109-225-190-419-214-514c-21-86-76-215-122-290c-27-44-92-106-187-177
		c-26-20-79-65-118-102c-38-36-128-120-199-186c-209-194-567-547-735-725c-149-158-299-347-465-589c-70-102-127-175-252-324
		c-36-43-100-122-143-175c-42-53-144-167-226-252s-171-184-198-220c-27-36-66-83-87-105c-20-22-91-121-157-220s-146-211-177-250
		c-30-38-85-126-121-195c-71-138-168-304-228-395c-28-41-42-75-47-112c-6-44-18-67-73-139s-66-94-66-126c0-34-9-47-98-140
		c-54-57-162-175-239-263s-160-178-183-200s-84-89-136-150c-52-60-130-150-175-200c-44-49-101-117-126-150c-26-33-72-87-103-120
		c-32-33-86-91-121-130c-104-114-279-244-428-319c-78-40-211-125-301-194c-248-188-260-198-287-234c-12-18-23-42-23-54
		c0-21,5-22,138-29c83-5,148-13,164-21c81-42,335,3,500,87c50,26,239,144,297,187c24,17,50,32,57,32s33,15,57,34
		c54,41,223,148,278,176c21,11,69,27,106,35c75,17,155,47,253,95c68,33,161,87,170,99c23,31,215,126,340,168c41,14,87,31,101,39
		c25,12,137,41,248,64c72,14,333,130,406,180c62,43,182,70,415,96c124,14,242,32,263,40s65,17,98,21c73,7,84-8,42-63
		c-27-36-28-42-28-148c1-176,11-316,30-386c26-100,32-237,24-575c-10-386-15-488-34-623c-8-59-22-181-30-272c-22-236-37-344-49-352
		c-27-18-134-8-192,18c-33,15-72,26-87,26c-17,0-48,13-75,33c-71,50-129,66-196,55c-31-5-61-12-66-15c-18-11-97-137-120-189
		c-32-75-20-85,23-20c22,33,52,70,69,83c68,55,167,63,216,18c21-20,23-27,16-84c-5-54-3-67,16-98c12-19,29-35,38-36s58-2,107-3
		c65-1,108-8,155-25c50-18,78-22,118-18c30,3,60,3,68,0s30-29,48-58c48-75,193-186,260-201c17-3,42-16,55-28l23-21l-8,65
		c-4,36-8,79-8,95c-1,36,3,36,159,11c240-37,296-45,405-56c63-6,143-12,177-13c60-2,64,0,93,33c17,19,35,45,40,58c8,19,17,22,73,22
		c73,0,134-26,201-88c49-44,59-27,16,27c-53,68-129,129-188,153c-50,20-72,22-175,20c-101-3-118-1-123,13c-9,22,10,38,70,60
		c47,17,120,17,206-1c23-5,23-3-10,26c-68,60-216,82-272,40c-20-15-38-20-56-16c-16,4-54-4-97-19c-38-14-98-28-131-32
		c-54-5-70-2-130,25c-38,16-95,35-127,42c-117,24-217,147-273,337c-48,162-49,444-4,1018c20,262,51,365,141,475c72,88,77,98,118,213
		c26,76,57,231,65,332c2,17,12,64,23,105c12,41,24,98,28,125c4,28,12,59,17,70c16,30,61,76,84,85c12,5,80-1,170-16
		c82-13,164-23,182-24c18,0,41-4,50-9s62-16,117-25s127-26,160-36c33-11,80-22,105-26c25-3,86-20,135-37c64-22,119-33,190-38
		c55-4,177-12,270-19c215-15,386-14,545,5c136,15,178,29,333,106c99,50,314,201,369,260c48,51,52,40,88-196c5-33,24-100,41-150
		c18-49,42-121,55-158c13-38,32-81,43-95c47-66,170-382,201-517c66-283,108-373,193-417c52-26,156-119,196-175c34-47,72-69,176-103
		c95-31,284-122,325-157c19-15,61-48,95-73c186-136,299-225,347-273c29-30,64-58,77-62c21-6,22-12,18-53c-14-134-77-271-135-293
		c-15-6-70-18-122-26c-118-18-167-39-208-91c-59-74-76-126-76-237c-1-143,11-163,36-56c23,102,70,205,104,228c34,22,65,6,83-43
		c39-112,73-112,216-4c36,27,77,50,90,50c40,0,69,16,129,71l57,52l64-21c71-25,104-27,172-11c106,24,123,31,151,54
		c31,26,61,32,78,15c7-7,20-6,40,5c16,8,52,15,79,15c28,1,79,7,115,15s87,14,113,15c27,0,58,5,70,12c12,6,55,17,95,24
		c86,15,112,33,112,81c0,66,42,82,195,74l50-3l-20,22c-49,55-132,70-225,41c-76-24-127-17-169,22c-39,37-65,47-120,47
		c-41,0-56-5-83-29c-18-15-43-31-55-35c-13-4-39-27-59-52l-36-44h-67c-79,0-77-1-224,132c-118,107-164,140-337,243
		c-63,37-160,98-215,135c-55,36-145,93-200,125s-131,81-170,110c-38,28-105,75-147,103c-43,29-82,61-88,71c-5,11-10,47-10,79
		c0,101-25,198-113,432c-46,124-91,254-100,290s-30,121-47,190c-48,194-61,296-69,555c-7,201-12,255-32,332c-22,87-22,98-10,185
		c7,51,24,138,38,193c13,55,40,175,59,268c19,92,43,195,54,228c43,127,190,431,267,554c25,39,66,106,92,150s64,107,85,140
		c38,62,82,186,111,315c10,41,30,116,46,167c16,50,33,120,38,155s18,97,29,138s25,121,32,177c16,124,4,190-73,413
		c-27,80-69,210-93,290c-24,80-59,181-78,225s-50,126-70,182c-19,56-61,157-92,225c-62,134-130,296-145,343c-15,50-72,346-79,410
		c-13,120,27,320,86,421c13,23,55,68,94,101c57,48,96,71,198,113c125,52,129,53,242,56c154,4,239,17,427,65c122,31,162,38,180,30
		c14-7,24-7,28-1c11,19-57,139-119,209c-76,87-121,121-261,197c-138,75-166,87-240,108c-33,10-76,26-95,36c-19,11-66,33-105,50
		c-80,35-143,92-242,217c-103,131-141,158-341,239c-46,19-89,34-95,34c-7,0-55,14-107,30C8537,11522,8256,11557,8135,11540z
		 M10964,2080c36-13,32-33-12-64c-46-32-50-32-79-4c-27,26-28,35-6,60C10885,2092,10925,2095,10964,2080z"/>
</g>
<rect x="32.5" y="167.7" class="st0" width="907.5" height="904.1"/>
<text transform="matrix(1 0 0 1 32.5269 974.1146)" class="st1 st2 st3">R</text>
<rect x="9" y="143.3" class="st0" width="907.5" height="904.1"/>
<text transform="matrix(1 0 0 1 9 949.7347)" class="st4 st2 st3">R</text>
<text transform="matrix(1 0 0 1 9 180.3002)" class="st2 st5"> </text>
</svg>
