<svg id="Layer_1" data-name="Layer 1" xmlns="http://www.w3.org/2000/svg" viewBox="0 0 1133.5 1036.93">
  <defs>
    <style>
      .cls-1 {
        fill: #000a90;
      }

      .cls-2 {
        fill: #3f4bbc;
      }
    </style>
  </defs>
  <title>ravenPrefect</title>
  <path d="M813.5,117c-17.7,2.5-40.5,11.4-54.1,21.2-10.3,7.4-28.2,27.4-40,44.8-10.4,15.3-12.7,19.2-16,27.7A136.9,136.9,0,0,1,697,225a64.33,64.33,0,0,0-4.4,12.6c-.9,4.6-4.2,12.8-9.1,23-10.9,22.5-19,41.9-21.4,51.4a121.33,121.33,0,0,1-12.2,29c-2.7,4.4-9.2,10.6-18.7,17.7-2.6,2-7.9,6.5-11.8,10.2s-12.8,12-19.9,18.6c-20.9,19.4-56.7,54.7-73.5,72.5-14.9,15.8-29.9,34.7-46.5,58.9-7,10.2-12.7,17.5-25.2,32.4-3.6,4.3-10,12.2-14.3,17.5s-14.4,16.7-22.6,25.2-17.1,18.4-19.8,22-6.6,8.3-8.7,10.5-9.1,12.1-15.7,22-14.6,21.1-17.7,25A154.86,154.86,0,0,0,343.4,693c-7.1,13.8-16.8,30.4-22.8,39.5-2.8,4.1-4.2,7.5-4.7,11.2-.6,4.4-1.8,6.7-7.3,13.9S302,767,302,770.2c0,3.4-.9,4.7-9.8,14-5.4,5.7-16.2,17.5-23.9,26.3s-16,17.8-18.3,20-8.4,8.9-13.6,15-13,15-17.5,20-10.1,11.7-12.6,15-7.2,8.7-10.3,12-8.6,9.1-12.1,13c-10.4,11.4-27.9,24.4-42.8,31.9A238.78,238.78,0,0,0,111,956.8c-24.8,18.8-26,19.8-28.7,23.4-1.2,1.8-2.3,4.2-2.3,5.4,0,2.1.5,2.2,13.8,2.9,8.3.5,14.8,1.3,16.4,2.1,8.1,4.2,33.5-.3,50-8.7,5-2.6,23.9-14.4,29.7-18.7,2.4-1.7,5-3.2,5.7-3.2s3.3-1.5,5.7-3.4A313.44,313.44,0,0,1,229.1,939a52.48,52.48,0,0,1,10.6-3.5c7.5-1.7,15.5-4.7,25.3-9.5,6.8-3.3,16.1-8.7,17-9.9,2.3-3.1,21.5-12.6,34-16.8a91.33,91.33,0,0,0,10.1-3.9c2.5-1.2,13.7-4.1,24.8-6.4,7.2-1.4,33.3-13,40.6-18,6.2-4.3,18.2-7,41.5-9.6,12.4-1.4,24.2-3.2,26.3-4a51.89,51.89,0,0,1,9.8-2.1c7.3-.7,8.4.8,4.2,6.3-2.7,3.6-2.8,4.2-2.8,14.8.1,17.6,1.1,31.6,3,38.6,2.6,10,3.2,23.7,2.4,57.5-1,38.6-1.5,48.8-3.4,62.3-.8,5.9-2.2,18.1-3,27.2-2.2,23.6-3.7,34.4-4.9,35.2-2.7,1.8-13.4.8-19.2-1.8-3.3-1.5-7.2-2.6-8.7-2.6-1.7,0-4.8-1.3-7.5-3.3-7.1-5-12.9-6.6-19.6-5.5a36.87,36.87,0,0,0-6.6,1.5c-1.8,1.1-9.7,13.7-12,18.9-3.2,7.5-2,8.5,2.3,2,2.2-3.3,5.2-7,6.9-8.3,6.8-5.5,16.7-6.3,21.6-1.8,2.1,2,2.3,2.7,1.6,8.4-.5,5.4-.3,6.7,1.6,9.8,1.2,1.9,2.9,3.5,3.8,3.6s5.8.2,10.7.3c6.5.1,10.8.8,15.5,2.5,5,1.8,7.8,2.2,11.8,1.8,3-.3,6-.3,6.8,0s3,2.9,4.8,5.8c4.8,7.5,19.3,18.6,26,20.1a13.09,13.09,0,0,1,5.5,2.8l2.3,2.1-.8-6.5c-.4-3.6-.8-7.9-.8-9.5-.1-3.6.3-3.6,15.9-1.1,24,3.7,29.6,4.5,40.5,5.6,6.3.6,14.3,1.2,17.7,1.3,6,.2,6.4,0,9.3-3.3a25.29,25.29,0,0,0,4-5.8c.8-1.9,1.7-2.2,7.3-2.2,7.3,0,13.4,2.6,20.1,8.8,4.9,4.4,5.9,2.7,1.6-2.7-5.3-6.8-12.9-12.9-18.8-15.3-5-2-7.2-2.2-17.5-2-10.1.3-11.8.1-12.3-1.3-.9-2.2,1-3.8,7-6,4.7-1.7,12-1.7,20.6.1,2.3.5,2.3.3-1-2.6-6.8-6-21.6-8.2-27.2-4-2,1.5-3.8,2-5.6,1.6-1.6-.4-5.4.4-9.7,1.9a71.13,71.13,0,0,1-13.1,3.2c-5.4.5-7,.2-13-2.5a89.46,89.46,0,0,0-12.7-4.2c-11.7-2.4-21.7-14.7-27.3-33.7-4.8-16.2-4.9-44.4-.4-101.8,2-26.2,5.1-36.5,14.1-47.5,7.2-8.8,7.7-9.8,11.8-21.3,2.6-7.6,5.7-23.1,6.5-33.2a102.11,102.11,0,0,1,2.3-10.5,114.39,114.39,0,0,0,2.8-12.5,33.81,33.81,0,0,1,1.7-7c1.6-3,6.1-7.6,8.4-8.5,1.2-.5,8,.1,17,1.6,8.2,1.3,16.4,2.3,18.2,2.4a13.15,13.15,0,0,1,5,.9c.9.5,6.2,1.6,11.7,2.5a153.1,153.1,0,0,1,16,3.6,79.81,79.81,0,0,0,10.5,2.6,89.49,89.49,0,0,1,13.5,3.7,69.69,69.69,0,0,0,19,3.8c5.5.4,17.7,1.2,27,1.9,21.5,1.5,38.6,1.4,54.5-.5,13.6-1.5,17.8-2.9,33.3-10.6,9.9-5,31.4-20.1,36.9-26,4.8-5.1,5.2-4,8.8,19.6a112.76,112.76,0,0,0,4.1,15c1.8,4.9,4.2,12.1,5.5,15.8s3.2,8.1,4.3,9.5c4.7,6.6,17,38.2,20.1,51.7,6.6,28.3,10.8,37.3,19.3,41.7,5.2,2.6,15.6,11.9,19.6,17.5,3.4,4.7,7.2,6.9,17.6,10.3,9.5,3.1,28.4,12.2,32.5,15.7,1.9,1.5,6.1,4.8,9.5,7.3,18.6,13.6,29.9,22.5,34.7,27.3,2.9,3,6.4,5.8,7.7,6.2,2.1.6,2.2,1.2,1.8,5.3-1.4,13.4-7.7,27.1-13.5,29.3a85.86,85.86,0,0,1-12.2,2.6c-11.8,1.8-16.7,3.9-20.8,9.1-5.9,7.4-7.6,12.6-7.6,23.7-.1,14.3,1.1,16.3,3.6,5.6,2.3-10.2,7-20.5,10.4-22.8s6.5-.6,8.3,4.3c3.9,11.2,7.3,11.2,21.6.4,3.6-2.7,7.7-5,9-5,4,0,6.9-1.6,12.9-7.1l5.7-5.2,6.4,2.1c7.1,2.5,10.4,2.7,17.2,1.1,10.6-2.4,12.3-3.1,15.1-5.4,3.1-2.6,6.1-3.2,7.8-1.5.7.7,2,.6,4-.5a21.77,21.77,0,0,1,7.9-1.5,75.77,75.77,0,0,0,11.5-1.5,76.74,76.74,0,0,1,11.3-1.5c2.7,0,5.8-.5,7-1.2a52.08,52.08,0,0,1,9.5-2.4c8.6-1.5,11.2-3.3,11.2-8.1,0-6.6,4.2-8.2,19.5-7.4l5,.3-2-2.2c-4.9-5.5-13.2-7-22.5-4.1-7.6,2.4-12.7,1.7-16.9-2.2-3.9-3.7-6.5-4.7-12-4.7-4.1,0-5.6.5-8.3,2.9a23.13,23.13,0,0,1-5.5,3.5c-1.3.4-3.9,2.7-5.9,5.2l-3.6,4.4h-6.7c-7.9,0-7.7.1-22.4-13.2-11.8-10.7-16.4-14-33.7-24.3-6.3-3.7-16-9.8-21.5-13.5s-14.5-9.3-20-12.5-13.1-8.1-17-11S934,988,929.8,985.2s-8.2-6.1-8.8-7.1a27,27,0,0,1-1-7.9c0-10.1-2.5-19.8-11.3-43.2-4.6-12.4-9.1-25.4-10-29s-3-12.1-4.7-19c-4.8-19.4-6.1-29.6-6.9-55.5-.7-20.1-1.2-25.5-3.2-33.2-2.2-8.7-2.2-9.8-1-18.5.7-5.1,2.4-13.8,3.8-19.3s4-17.5,5.9-26.8,4.3-19.5,5.4-22.8c4.3-12.7,19-43.1,26.7-55.4,2.5-3.9,6.6-10.6,9.2-15s6.4-10.7,8.5-14c3.8-6.2,8.2-18.6,11.1-31.5,1-4.1,3-11.6,4.6-16.7a118.73,118.73,0,0,0,3.8-15.5c.5-3.5,1.8-9.7,2.9-13.8a162.84,162.84,0,0,0,3.2-17.7c1.6-12.4.4-19-7.3-41.3-2.7-8-6.9-21-9.3-29s-5.9-18.1-7.8-22.5-5-12.6-7-18.2-6.1-15.7-9.2-22.5c-6.2-13.4-13-29.6-14.5-34.3-1.5-5-7.2-34.6-7.9-41-1.3-12,2.7-32,8.6-42.1,1.3-2.3,5.5-6.8,9.4-10.1,5.7-4.8,9.6-7.1,19.8-11.3,12.5-5.2,12.9-5.3,24.2-5.6,15.4-.4,23.9-1.7,42.7-6.5,12.2-3.1,16.2-3.8,18-3,1.4.7,2.4.7,2.8.1,1.1-1.9-5.7-13.9-11.9-20.9-7.6-8.7-12.1-12.1-26.1-19.7-13.8-7.5-16.6-8.7-24-10.8A68.79,68.79,0,0,1,959,181c-1.9-1.1-6.6-3.3-10.5-5-8-3.5-14.3-9.2-24.2-21.7-10.3-13.1-14.1-15.8-34.1-23.9a68.8,68.8,0,0,0-9.5-3.4c-.7,0-5.5-1.4-10.7-3C853.7,118.8,825.6,115.3,813.5,117Zm282.9,946c3.6,1.3,3.2,3.3-1.2,6.4-4.6,3.2-5,3.2-7.9.4-2.7-2.6-2.8-3.5-.6-6C1088.5,1061.8,1092.5,1061.5,1096.4,1063Z" transform="translate(-9 -116.57)"/>
  <path class="cls-1" d="M479.1,199.6q140.91,0,215.26,50T768.7,392.85q0,45.58-10.63,78t-29.53,54.92A162.73,162.73,0,0,1,683.46,563a331.22,331.22,0,0,1-56.71,25.12q21.22,5.7,42.75,30.56t43.76,61.39q22.28,36.52,45.08,81.08t45.84,90.14q23.07,45.61,46.63,88.6A827.82,827.82,0,0,0,898,1016.6q23.58,33.66,47.67,53.87t47.92,20.21a53.73,53.73,0,0,0,20.46-4.14,77.64,77.64,0,0,0,15.81-8.3l10.87,20.22q-10.35,5.67-25.39,12.69a282.68,282.68,0,0,1-35.22,13.2A374,374,0,0,1,934.75,1135a323.51,323.51,0,0,1-55.71,4.41q-50.25,0-90.65-27.72t-69.43-78q-29.52-51.81-58-108.79t-56.72-114q-28.23-57-56.46-111.38T491,597.47l4.16-21.23q30.55,7.78,53.09-3.63t37-37q14.51-25.65,21.5-62.94t7-80.83a242.16,242.16,0,0,0-6.73-58.26q-6.75-27.19-18.91-47.68t-29.26-32.12a66.58,66.58,0,0,0-38.35-11.66q-16.59,0-27.2,4.93a47.1,47.1,0,0,0-16.83,12.43A42.64,42.64,0,0,0,468,275.51a61.75,61.75,0,0,0-2.32,16.31V906.26q0,39.88-21,58t-64,18.12q-43.53,0-64.25-18.12t-20.72-58V286.65q0-28.5-39.36-28.5a206.08,206.08,0,0,0-57.78,8.54A209.9,209.9,0,0,0,145.71,290a138.18,138.18,0,0,0-38.59,35.23q-15,20.46-15,44.3,0,16.59,4.41,26.42t10.09,14.76a26.51,26.51,0,0,0,11.66,6.22,46.25,46.25,0,0,0,8.55,1.28q12.93,0,21.23-4.39a124.13,124.13,0,0,0,15-9.32q6.74-4.93,12.69-9.33a22.47,22.47,0,0,1,13.74-4.41,34.86,34.86,0,0,1,13.2,2.86,37.93,37.93,0,0,1,13,9.06A51.89,51.89,0,0,1,225.76,419q4.16,10.11,4.16,24.59,0,20.73-8,35.75a79.6,79.6,0,0,1-20.74,25.13,86.31,86.31,0,0,1-29,15,111.77,111.77,0,0,1-32.38,4.92q-24.87,0-44.81-8.55A99,99,0,0,1,61,492.32a101,101,0,0,1-21.23-35.24,125.9,125.9,0,0,1-7.25-43q0-43,16.06-75.89a166.86,166.86,0,0,1,45.33-56.73q29.25-23.82,70.18-39.63t90.68-25.12a918.31,918.31,0,0,1,106.45-13.22Q417.95,199.61,479.1,199.6Z" transform="translate(-9 -116.57)"/>
  <path class="cls-2" d="M455.58,175.22q140.91,0,215.25,50t74.34,143.25q0,45.58-10.62,78T705,501.36a162.73,162.73,0,0,1-45.08,37.3,331.68,331.68,0,0,1-56.72,25.12q21.24,5.7,42.75,30.56t43.76,61.39q22.28,36.53,45.08,81.08T780.66,827q23.05,45.62,46.62,88.6a827.82,827.82,0,0,0,47.14,76.67q23.58,33.66,47.67,53.87T970,1066.3a53.71,53.71,0,0,0,20.45-4.14,77.64,77.64,0,0,0,15.81-8.3l10.88,20.22q-10.36,5.67-25.39,12.69a283.29,283.29,0,0,1-35.22,13.2,374.62,374.62,0,0,1-45.33,10.62,323.47,323.47,0,0,1-55.7,4.41q-50.25,0-90.66-27.72t-69.42-78q-29.54-51.81-58-108.79t-56.72-114q-28.25-57-56.47-111.38T467.48,573.09l4.16-21.23q30.57,7.78,53.09-3.63t37-37q14.51-25.65,21.5-62.94a440.06,440.06,0,0,0,7-80.83,241.65,241.65,0,0,0-6.74-58.26q-6.75-27.2-18.9-47.68t-29.27-32.12A66.58,66.58,0,0,0,497,217.7q-16.61,0-27.21,4.93A47.19,47.19,0,0,0,453,235.06a42.61,42.61,0,0,0-8.54,16.07,61.78,61.78,0,0,0-2.33,16.31V881.88q0,39.89-21,58t-64,18.12q-43.51,0-64.25-18.12t-20.72-58V262.27q0-28.5-39.36-28.5A206.13,206.13,0,0,0,175,242.31a210,210,0,0,0-52.84,23.32,138.08,138.08,0,0,0-38.6,35.23q-15,20.46-15,44.3,0,16.59,4.4,26.42t10.1,14.76a26.53,26.53,0,0,0,11.65,6.22,46.25,46.25,0,0,0,8.55,1.28q12.94,0,21.24-4.39a124.13,124.13,0,0,0,15-9.32c4.48-3.29,8.72-6.4,12.68-9.33A22.47,22.47,0,0,1,166,366.39a34.82,34.82,0,0,1,13.2,2.86,37.87,37.87,0,0,1,13,9.06,52.06,52.06,0,0,1,10.1,16.33q4.16,10.11,4.16,24.59,0,20.73-8,35.75a79.7,79.7,0,0,1-20.73,25.13,86.36,86.36,0,0,1-29,15,111.72,111.72,0,0,1-32.38,4.92q-24.86,0-44.81-8.55a99.06,99.06,0,0,1-33.94-23.56A101.32,101.32,0,0,1,16.25,432.7,126.14,126.14,0,0,1,9,389.7q0-43,16.06-75.89a167.1,167.1,0,0,1,45.33-56.73q29.25-23.82,70.19-39.63t90.67-25.12A918.59,918.59,0,0,1,337.7,179.11Q394.43,175.23,455.58,175.22Z" transform="translate(-9 -116.57)"/>
</svg>
