<svg xmlns="http://www.w3.org/2000/svg" xmlns:xlink="http://www.w3.org/1999/xlink" viewBox="0 0 653.25 883.5">
  <defs>
    <style>
      .cls-1 {
        isolation: isolate;
      }

      .cls-2 {
        fill: #052d09;
      }

      .cls-3 {
        fill: #0d6217;
      }
    </style>
  </defs>
  <title>Asset 1</title>
  <g id="Layer_2" data-name="Layer 2">
    <g id="Layer_1-2" data-name="Layer 1">
      <image class="cls-1" width="871" height="1178" transform="scale(0.75)" xlink:href="Asset%2011.png"/>
      <path class="cls-2" d="M569.22,684.5a86.873,86.873,0,0,0,30.44-5.59,68.278,68.278,0,0,0,26.77-18.49q11.74-12.919,19.07-33.72t7.32-50.85q0-32.359-16-62.79a359.6,359.6,0,0,0-40.06-59.9q-24.09-29.48-52-58.56t-52-59.32a350.714,350.714,0,0,1-40.07-62.41,149.132,149.132,0,0,1-16-67.22q0-35,12.9-63.37a143.878,143.878,0,0,1,35.06-48.15A157.747,157.747,0,0,1,536.29,63.5a181.8,181.8,0,0,1,63-10.79q35.831,0,63.76,7.51t47.38,20.42q19.44,12.9,29.47,30.43a73.864,73.864,0,0,1,10,37.17,72.21,72.21,0,0,1-2.69,19.07,56.1,56.1,0,0,1-8.48,17.92,49.012,49.012,0,0,1-14.64,13.48,39.141,39.141,0,0,1-20.8,5.39q-14.25,0-21-8.67a57.653,57.653,0,0,1-10-21.38,282.7,282.7,0,0,1-5.58-27.92,129.65,129.65,0,0,0-7.35-27.92,53.934,53.934,0,0,0-15-21.38q-10-8.67-29.27-8.67a49.527,49.527,0,0,0-20.61,4.62,54.49,54.49,0,0,0-18.49,14.06q-8.3,9.45-13.29,24.08t-5,34.67a111.147,111.147,0,0,0,9.63,45.07A225.147,225.147,0,0,0,592.75,254a463.19,463.19,0,0,0,36,42.76q20.22,21.38,41.22,43.14t41.22,44.69a391.233,391.233,0,0,1,36,47.57,254.276,254.276,0,0,1,25.42,51.62,167.146,167.146,0,0,1,9.63,56.63q0,43.549-16.75,77.62a169.084,169.084,0,0,1-45.46,57.4q-28.669,23.31-67.21,35.64a267.321,267.321,0,0,1-82,12.32q-39.3,0-69.54-9.82t-51-26q-20.8-16.19-31.4-36.79a92.052,92.052,0,0,1-10.59-42.57,75.506,75.506,0,0,1,2.89-19.84,71.528,71.528,0,0,1,8.48-19.45,51.261,51.261,0,0,1,14.06-14.83,33.2,33.2,0,0,1,19.64-6q11.56,0,18.69,5.77a40.577,40.577,0,0,1,11.31,15.44,117.2,117.2,0,0,1,6.93,22q2.7,12.33,5.78,25a214.107,214.107,0,0,0,7.71,25,74.516,74.516,0,0,0,12.71,22,58.1,58.1,0,0,0,20.8,15.41Q549.97,684.5,569.22,684.5Z" transform="translate(-137.5)"/>
      <path class="cls-3" d="M547.84,658.59A86.84,86.84,0,0,0,578.27,653a68,68,0,0,0,26.77-18.5q11.74-12.9,19.07-33.7t7.32-50.85q0-32.37-16-62.79a358.694,358.694,0,0,0-40.07-59.9q-24.071-29.46-52-58.55t-52-59.32a350.982,350.982,0,0,1-40-62.41,149.145,149.145,0,0,1-16-67.22q0-35.059,12.9-63.37a143.988,143.988,0,0,1,35.06-48.16,157.838,157.838,0,0,1,51.62-30.62,181.851,181.851,0,0,1,63-10.79q35.839,0,63.76,7.52t47.38,20.41q19.451,12.92,29.47,30.43a73.784,73.784,0,0,1,10,37.18,72.256,72.256,0,0,1-2.7,19.07,55.94,55.94,0,0,1-8.49,17.91,49.127,49.127,0,0,1-14.63,13.48,39.21,39.21,0,0,1-20.8,5.4q-14.269,0-21-8.67a57.8,57.8,0,0,1-10-21.38,282.839,282.839,0,0,1-5.58-27.93,129.394,129.394,0,0,0-7.32-27.93,54.074,54.074,0,0,0-15-21.38q-10-8.67-29.28-8.67a49.545,49.545,0,0,0-20.61,4.63,54.49,54.49,0,0,0-18.49,14.06q-8.3,9.439-13.29,24.07t-5,34.67a111.194,111.194,0,0,0,9.63,45.08,225.662,225.662,0,0,0,25.37,43.33,460.444,460.444,0,0,0,36,42.76q20.239,21.39,41.22,43.15t41.22,44.68a391.055,391.055,0,0,1,36,47.58,254.315,254.315,0,0,1,25.43,51.62,167.365,167.365,0,0,1,9.64,56.61q0,43.53-16.76,77.62a169,169,0,0,1-45.46,57.38q-28.69,23.3-67.22,35.63T549.36,697.5q-39.3,0-69.54-9.83t-51-26Q408,645.5,397.41,624.88a91.939,91.939,0,0,1-10.6-42.56,75.823,75.823,0,0,1,2.89-19.82,71.589,71.589,0,0,1,8.48-19.46,51.784,51.784,0,0,1,14.06-14.83,33.2,33.2,0,0,1,19.64-6q11.57,0,18.69,5.78a40.314,40.314,0,0,1,11.36,15.41,116.7,116.7,0,0,1,6.94,22q2.69,12.33,5.77,25a218.236,218.236,0,0,0,7.71,25,74.516,74.516,0,0,0,12.71,22,58,58,0,0,0,20.8,15.41Q528.58,658.59,547.84,658.59Z" transform="translate(-137.5)"/>
    </g>
  </g>
</svg>
